<svg xmlns="http://www.w3.org/2000/svg" viewBox="0 0 500 500"><g id="freepik--background-complete--inject-5"><rect x="292.94" y="36.71" width="32.06" height="4.39" style="fill:#e0e0e0"></rect><rect x="292.94" y="44.65" width="13.87" height="4.39" style="fill:#e0e0e0"></rect><path d="M160.57,85.64a20.41,20.41,0,0,1,5-2.16l1-4.92,8.31-.15,1.2,4.88a20.12,20.12,0,0,1,5,2l4.2-2.76,6,5.78-2.6,4.29a20.48,20.48,0,0,1,2.16,5l4.92,1,.14,8.31L191,108.1a20.48,20.48,0,0,1-2,5l2.75,4.2-5.77,6-4.3-2.61a20.25,20.25,0,0,1-5,2.16l-1,4.92-8.31.15-1.2-4.88a20.12,20.12,0,0,1-5-2L157,123.84l-6-5.78,2.61-4.29a20.48,20.48,0,0,1-2.16-5l-4.92-1-.15-8.31,4.88-1.2a20.12,20.12,0,0,1,2-5L150.5,89l5.78-6,4.29,2.61ZM165,96.71a8.92,8.92,0,1,0,12.62-.22A8.91,8.91,0,0,0,165,96.71Z" style="fill:#f5f5f5"></path><path d="M165,96.71a6.93,6.93,0,0,1,1.66-1.45,9,9,0,0,1,9.78,0,9.25,9.25,0,0,1,3.2,3.61,8.63,8.63,0,0,1,.81,2.5,8.73,8.73,0,0,1,.05,2.75,9.12,9.12,0,0,1-7.53,7.8,8.76,8.76,0,0,1-2.75,0,8.57,8.57,0,0,1-2.53-.72,9.18,9.18,0,0,1-3.71-3.07,9,9,0,0,1-.37-9.77A6.67,6.67,0,0,1,165,96.71c.05,0-.53.59-1.22,1.81a9,9,0,0,0-1,5.71,8.73,8.73,0,0,0,5.09,6.6,8.35,8.35,0,0,0,2.41.67,8.06,8.06,0,0,0,2.59-.06,8.65,8.65,0,0,0,7.12-7.37,8.38,8.38,0,0,0,0-2.6,8.12,8.12,0,0,0-.76-2.37,8.72,8.72,0,0,0-6.77-4.86,8.91,8.91,0,0,0-5.67,1.18C165.57,96.15,165.05,96.76,165,96.71Z" style="fill:#f5f5f5"></path><path d="M160.57,85.64a1.33,1.33,0,0,1-.27-.15l-.83-.47-3.24-1.92h.11l-5.74,6V89c.84,1.26,1.77,2.68,2.77,4.19l.05.07,0,.08a19.8,19.8,0,0,0-1.95,5l0,.1-.1,0-4.88,1.21.14-.18c.06,2.62.11,5.4.17,8.32l-.16-.2,4.92,1,.12,0,0,.13a20.18,20.18,0,0,0,2.15,4.91l.07.12-.07.11c-.81,1.33-1.7,2.8-2.6,4.3l0-.28,6,5.76-.3,0,4.2-2.76.13-.08.12.07a20.52,20.52,0,0,0,5,2l.14,0,0,.15c.37,1.53.78,3.19,1.2,4.88l-.25-.19,8.31-.15-.24.2c.32-1.56.67-3.23,1-4.92l0-.15.15,0a20.12,20.12,0,0,0,4.91-2.14h0l.14-.08.13.08,4.29,2.61-.31,0,5.77-6,0,.31c-.93-1.41-1.84-2.81-2.75-4.2l-.08-.13.07-.13a20,20,0,0,0,2-5l0-.15.14,0,4.89-1.19-.19.24c-.05-2.84-.09-5.61-.14-8.32l.19.23-4.92-1-.13,0,0-.13a20.45,20.45,0,0,0-2.13-4.92l-.07-.12.07-.11,2.61-4.29,0,.26-6-5.78.24,0-4.21,2.74-.09.06-.1,0a20,20,0,0,0-5-2l-.1,0,0-.1c-.43-1.77-.81-3.37-1.18-4.88l.15.11-8.31.11.11-.09c-.42,2-.77,3.57-1.06,4.92v0h0A21.12,21.12,0,0,0,161.76,85l-.89.47a1.54,1.54,0,0,1-.3.15,3,3,0,0,1,.28-.19c.19-.12.48-.29.88-.5a18.91,18.91,0,0,1,3.79-1.55l-.06.06c.27-1.34.6-3,1-4.92v-.09h.1l8.31-.18H175l0,.12c.37,1.51.77,3.1,1.21,4.87l-.12-.12a20.46,20.46,0,0,1,5.09,2H181l4.19-2.76.13-.09.12.11,6,5.77.12.11-.09.15-2.59,4.3v-.23a20.37,20.37,0,0,1,2.19,5l-.17-.16,4.92,1,.18,0v.19c.05,2.7.11,5.47.16,8.31v.19l-.19,0-4.88,1.2.18-.18a20.56,20.56,0,0,1-2,5.1V113l2.75,4.2.12.17-.14.15-5.78,6-.14.15-.17-.11-4.3-2.6h.26a20.71,20.71,0,0,1-5,2.19l.18-.2-1,4.92,0,.2h-.21l-8.31.15h-.2l-.05-.19L166,123.12l.18.19a20.88,20.88,0,0,1-5.1-2h.25L157.12,124l-.15.11-.14-.13-6-5.79-.13-.12.1-.16,2.61-4.29v.23a20.67,20.67,0,0,1-2.18-5l.16.15-4.91-1-.16,0v-.16c-.05-2.91-.09-5.69-.13-8.31v-.14l.14,0,4.88-1.18-.12.12a20.65,20.65,0,0,1,2-5.08v.16l-2.74-4.21,0-.09.07-.07c2.36-2.43,4.32-4.43,5.81-6l0,0,.06,0,3.16,2,.82.52A2.06,2.06,0,0,1,160.57,85.64Z" style="fill:#f5f5f5"></path><path d="M314.05,266.86a22.55,22.55,0,0,1,5.51-2.39l1.13-5.45,9.2-.16,1.32,5.4a22.82,22.82,0,0,1,5.59,2.2l4.65-3,6.62,6.39-2.88,4.76a22.87,22.87,0,0,1,2.39,5.5l5.44,1.13.16,9.2-5.4,1.33a22.51,22.51,0,0,1-2.2,5.58l3.05,4.65-6.39,6.62-4.75-2.88a22.55,22.55,0,0,1-5.51,2.39l-1.13,5.44-9.2.17-1.32-5.41a22.4,22.4,0,0,1-5.59-2.19l-4.65,3-6.62-6.39,2.89-4.75a22.52,22.52,0,0,1-2.4-5.5l-5.44-1.14-.16-9.2,5.4-1.32a22.59,22.59,0,0,1,2.2-5.58l-3-4.65L309.3,264l4.75,2.88ZM319,279.12a9.87,9.87,0,1,0,14-.25A9.86,9.86,0,0,0,319,279.12Z" style="fill:#f5f5f5"></path><path d="M319,279.12a7.58,7.58,0,0,1,1.84-1.62,9.85,9.85,0,0,1,6.44-1.52,10,10,0,0,1,4.37,1.55,10.14,10.14,0,0,1,3.54,4,9.28,9.28,0,0,1,.9,2.77,9.67,9.67,0,0,1,.06,3,10.07,10.07,0,0,1-8.34,8.63,9.36,9.36,0,0,1-3,.06,9.78,9.78,0,0,1-2.81-.8,10.27,10.27,0,0,1-4.11-3.4,10,10,0,0,1-.41-10.81,7.45,7.45,0,0,1,1.55-1.89,20.74,20.74,0,0,0-1.36,2,9.86,9.86,0,0,0-1.09,6.32,9.66,9.66,0,0,0,5.64,7.3,9,9,0,0,0,2.66.74,8.94,8.94,0,0,0,2.87-.06,9.58,9.58,0,0,0,7.88-8.16,9.7,9.7,0,0,0-.87-5.51,9.66,9.66,0,0,0-7.5-5.37,9.82,9.82,0,0,0-6.28,1.31C319.59,278.5,319,279.17,319,279.12Z" style="fill:#f5f5f5"></path><path d="M314.05,266.86l-.3-.16-.91-.53-3.59-2.12h.11L303,270.7l0-.18c.93,1.4,2,3,3.06,4.64l.06.08,0,.09a22.67,22.67,0,0,0-2.16,5.54l0,.11-.11,0-5.39,1.34.15-.2q.09,4.35.18,9.2l-.18-.21,5.45,1.12.14,0,0,.13a22.77,22.77,0,0,0,2.37,5.44l.08.13-.08.13-2.87,4.75,0-.31,6.63,6.39-.33,0,4.65-3.05.13-.09.14.08a22.37,22.37,0,0,0,5.52,2.17l.16,0,0,.16c.42,1.69.87,3.54,1.33,5.4l-.27-.21,9.2-.17-.27.23c.35-1.72.74-3.58,1.13-5.45l0-.17.17,0a22.82,22.82,0,0,0,5.43-2.36h0l.15-.09.14.09,4.76,2.88-.35,0,6.39-6.62,0,.35c-1-1.56-2-3.11-3-4.65l-.09-.14.08-.15a21.8,21.8,0,0,0,2.17-5.51l0-.16.17,0,5.4-1.32-.21.27q-.07-4.71-.15-9.2l.21.25-5.45-1.14-.15,0,0-.15a22.33,22.33,0,0,0-2.35-5.45l-.08-.12.08-.13,2.89-4.75,0,.29-6.6-6.4.27,0-4.66,3-.1.07-.11-.06a22.45,22.45,0,0,0-5.53-2.2l-.11,0,0-.11c-.47-2-.9-3.74-1.3-5.41l.16.13-9.2.12.12-.1c-.46,2.17-.85,3.95-1.16,5.44l0,.05-.05,0a23.11,23.11,0,0,0-4.21,1.61l-1,.52-.33.17.31-.21c.21-.13.53-.32,1-.56a22.12,22.12,0,0,1,4.2-1.71l-.06.07c.3-1.49.66-3.28,1.1-5.45l0-.1h.1l9.2-.2H330l0,.13c.42,1.67.86,3.44,1.35,5.4l-.14-.14a23.06,23.06,0,0,1,5.64,2.2h-.21c1.47-1,3-2,4.64-3.06l.14-.1.13.13,6.63,6.37.14.13-.1.16c-.93,1.55-1.89,3.13-2.88,4.76v-.25a22.93,22.93,0,0,1,2.43,5.56l-.19-.18,5.44,1.13.21,0v.21c.06,3,.11,6.06.17,9.2v.21l-.21,0-5.4,1.33.2-.2a22.74,22.74,0,0,1-2.22,5.65v-.28l3.05,4.65.12.18-.16.16-6.39,6.63-.15.16-.2-.12-4.75-2.88h.29a22.8,22.8,0,0,1-5.57,2.42l.2-.21c-.39,1.87-.78,3.72-1.13,5.44l-.05.22h-.22l-9.2.15h-.23l-.05-.22c-.45-1.86-.91-3.71-1.32-5.4l.2.2a22.73,22.73,0,0,1-5.65-2.23h.28l-4.65,3-.18.12-.15-.15-6.61-6.4-.15-.14.11-.17,2.89-4.75v.26a22.76,22.76,0,0,1-2.41-5.57l.18.17-5.45-1.15-.17,0v-.17c-.05-3.23-.1-6.31-.14-9.2V282l.16,0,5.41-1.31-.14.13a22.74,22.74,0,0,1,2.23-5.61v.17l-3-4.67-.06-.09.08-.08,6.42-6.59.06-.05.06,0,3.5,2.18.9.57Z" style="fill:#f5f5f5"></path><path d="M111.8,122.53a32.09,32.09,0,0,1,8.42,1.3l5.48-5.69,11.17,6.78-2.5,7.49a31.6,31.6,0,0,1,5,6.87l7.9-.14,3.11,12.69-7.06,3.53a32.51,32.51,0,0,1-1.3,8.42l5.68,5.48L141,180.44l-7.5-2.5a32.46,32.46,0,0,1-6.86,5l.14,7.89L114.05,194l-3.52-7.06a32,32,0,0,1-8.42-1.3l-5.49,5.68-11.17-6.77L88,177a31.84,31.84,0,0,1-5-6.87l-7.9.14L71.9,157.62,79,154.09a32,32,0,0,1,1.29-8.42l-5.68-5.49L81.36,129l7.49,2.5a31.93,31.93,0,0,1,6.87-5l-.14-7.89,12.69-3.11,3.53,7.06ZM108.4,141a14,14,0,1,0,16.95,10.28A14,14,0,0,0,108.4,141Z" style="fill:#e0e0e0"></path><path d="M108.4,141a10.75,10.75,0,0,1,3.43-.55,14,14,0,0,1,8.89,3.05,14.16,14.16,0,0,1,4.08,5.19,14.32,14.32,0,0,1,1.23,7.47,14.31,14.31,0,0,1-3.26,7.7,14.28,14.28,0,0,1-16.54,4,13.25,13.25,0,0,1-3.69-2.24,13.39,13.39,0,0,1-2.76-3.08,14.24,14.24,0,0,1-2.36-7.2,14.15,14.15,0,0,1,7.69-13.29,10.49,10.49,0,0,1,3.29-1.1c0,.09-1.2.33-3.14,1.38a13.93,13.93,0,0,0-6.1,6.76,13.67,13.67,0,0,0,1.24,13,12.63,12.63,0,0,0,2.63,2.9,12.76,12.76,0,0,0,3.5,2.11,13.57,13.57,0,0,0,15.64-3.84,13.66,13.66,0,0,0,3.12-7.27,13.7,13.7,0,0,0-4.93-12.14,14,14,0,0,0-8.53-3.17C109.62,140.7,108.42,141.07,108.4,141Z" style="fill:#e0e0e0"></path><path d="M111.8,122.53a2.32,2.32,0,0,1-.25-.43l-.7-1.32c-.62-1.22-1.52-3-2.7-5.26l.15.07-12.67,3.19.15-.21c0,2.4.11,5.05.17,7.9v.14l-.12.07a31.84,31.84,0,0,0-6.8,5l-.11.11-.15-.05-7.5-2.48.33-.12-6.75,11.19,0-.39,5.69,5.47.15.14-.06.19a31.88,31.88,0,0,0-1.27,8.34v.21l-.19.09-7.06,3.54.19-.41c1,4,2,8.28,3.13,12.69l-.37-.29,7.89-.14h.23l.11.21a32.19,32.19,0,0,0,5,6.78l.16.17-.07.22c-.78,2.35-1.64,4.91-2.5,7.49l-.17-.46L96.83,191l-.5.07,5.49-5.69.17-.17.23.07a32.31,32.31,0,0,0,8.31,1.28h.25l.11.22,3.52,7.06-.45-.21,12.69-3.1-.3.39c0-2.66-.09-5.29-.14-7.9v-.23l.21-.12a31.66,31.66,0,0,0,6.78-5l.17-.17.23.08,7.49,2.5-.45.17q3.48-5.72,6.78-11.17l.06.46L141.81,164l-.16-.15.06-.21a31.69,31.69,0,0,0,1.3-8.33v-.21l.19-.09,7.07-3.52-.18.38c-1.08-4.47-2.11-8.68-3.08-12.7l.3.24-7.89.12h-.18l-.08-.15a32,32,0,0,0-5-6.83l-.11-.11.05-.15,2.53-7.48.1.27-11.14-6.82.22,0-5.52,5.65-.06,0-.07,0a32.77,32.77,0,0,0-6.28-1.24l-1.58-.13a2.58,2.58,0,0,1-.52,0s.18,0,.52,0,.88,0,1.59.07a30.49,30.49,0,0,1,6.34,1.12l-.13,0,5.45-5.72.1-.1.13.07,11.2,6.73.16.09-.06.19c-.77,2.31-1.58,4.77-2.48,7.5l-.06-.27a32.19,32.19,0,0,1,5.11,6.91l-.26-.15,7.89-.16h.25l.06.24,3.13,12.68.07.26-.24.12-7.06,3.54.19-.3a32.24,32.24,0,0,1-1.3,8.51l-.09-.36L148,169l.21.2-.15.26-6.77,11.18-.16.26-.29-.1-7.49-2.49.39-.09a32.62,32.62,0,0,1-6.94,5.1l.2-.35q.07,3.92.14,7.89v.32l-.31.08-12.69,3.11-.31.08-.14-.29c-1.17-2.33-2.35-4.69-3.53-7.06l.35.22h0A32.65,32.65,0,0,1,102,186l.41-.11-5.49,5.68-.22.23-.28-.16-11.17-6.78L85,184.7l.1-.3c.87-2.58,1.73-5.14,2.51-7.49l.09.4a32.47,32.47,0,0,1-5.1-7l.35.2-7.9.13h-.3l-.07-.29c-1.07-4.41-2.12-8.71-3.09-12.7l-.07-.28.25-.12,7.07-3.52-.19.3a32.12,32.12,0,0,1,1.33-8.5l.08.33-5.67-5.5-.18-.17.13-.22,6.8-11.16.12-.19.22.07,7.48,2.52-.26.06a32.4,32.4,0,0,1,6.93-5.06l-.12.22c0-2.85-.07-5.51-.11-7.9v-.16l.16,0,12.71-3,.1,0,0,.09,2.56,5.27c.28.58.49,1,.65,1.37S111.8,122.52,111.8,122.53Z" style="fill:#e0e0e0"></path><path d="M105.6,55.54a9,9,0,0,1,3-.47,12.23,12.23,0,0,1,11.17,7.09,12.46,12.46,0,0,1,1.06,6.44,11.85,11.85,0,0,1-.88,3.45A11.62,11.62,0,0,1,118,75.23a12.31,12.31,0,0,1-14.25,3.49,12.35,12.35,0,0,1-5.55-4.58,12.4,12.4,0,0,1-2-6.2,12.16,12.16,0,0,1,1-5.58,12,12,0,0,1,5.58-5.87,9.21,9.21,0,0,1,2.83-1,29.45,29.45,0,0,0-2.71,1.19,12,12,0,0,0-5.25,5.82,11.76,11.76,0,0,0,1.07,11.23,10.9,10.9,0,0,0,2.26,2.5,11.25,11.25,0,0,0,3,1.82,11.68,11.68,0,0,0,13.47-3.31,11.71,11.71,0,0,0,2.69-6.26,11.82,11.82,0,0,0-4.24-10.45,12,12,0,0,0-7.35-2.74A29.24,29.24,0,0,0,105.6,55.54Z" style="fill:#e0e0e0"></path><path d="M108.53,39.66a2.18,2.18,0,0,1-.22-.37l-.59-1.14-2.33-4.53.12.06L94.6,36.42l.13-.17c0,2.06.1,4.35.15,6.8v.12l-.11.06a27.52,27.52,0,0,0-5.85,4.33l-.1.09-.13,0-6.46-2.14.29-.1L76.7,55l0-.33,4.9,4.71.13.12,0,.17a27.2,27.2,0,0,0-1.09,7.18V67l-.16.08-6.08,3,.16-.35c.85,3.43,1.76,7.13,2.7,10.93l-.32-.25,6.8-.13h.2l.09.18a27.57,27.57,0,0,0,4.3,5.84l.14.14-.07.19c-.67,2-1.41,4.23-2.15,6.46l-.14-.4,9.62,5.83-.42.06,4.72-4.9.15-.15.2.06a27.2,27.2,0,0,0,7.15,1.1h.22l.09.19,3,6.08-.39-.18,10.93-2.68-.26.34q-.06-3.44-.11-6.8v-.2l.18-.1A27.47,27.47,0,0,0,127,87.14l.14-.14.2.07,6.45,2.15-.39.15,5.85-9.62.05.39-4.89-4.73-.14-.13.06-.18a27.5,27.5,0,0,0,1.11-7.17v-.18l.16-.08,6.09-3-.15.33c-.94-3.85-1.82-7.48-2.66-10.94l.26.2-6.8.1h-.15l-.07-.13a27.36,27.36,0,0,0-4.29-5.87l-.1-.1.05-.13,2.17-6.45.09.24L120.42,36l.2,0-4.76,4.86,0,0-.06,0a28.69,28.69,0,0,0-5.41-1.07L109,39.7a2.67,2.67,0,0,1-.45,0,2.28,2.28,0,0,1,.45,0c.3,0,.76,0,1.37.06a26.76,26.76,0,0,1,5.46,1l-.11,0,4.69-4.93.09-.09.11.07,9.64,5.79.14.08-.05.16c-.66,2-1.36,4.11-2.13,6.46l-.05-.23a27.89,27.89,0,0,1,4.39,6l-.22-.12,6.8-.14h.21l.05.2c.86,3.46,1.75,7.08,2.7,10.93l.06.22-.21.1-6.08,3,.17-.26a27.93,27.93,0,0,1-1.12,7.34l-.08-.32,4.9,4.72.18.18-.13.22-5.83,9.63-.13.22-.25-.08-6.46-2.15.34-.08a27.48,27.48,0,0,1-6,4.4l.17-.3q.06,3.36.13,6.8v.27l-.26.07-10.94,2.68-.26.07-.13-.25-3-6.09.31.2h0a28.17,28.17,0,0,1-7.34-1.14l.35-.09-4.73,4.9-.19.19-.23-.14-9.63-5.84-.23-.14.09-.26c.74-2.22,1.48-4.43,2.16-6.45l.07.34a28.21,28.21,0,0,1-4.38-6l.29.17-6.8.11h-.26l-.06-.25c-.92-3.8-1.83-7.5-2.66-10.94l-.06-.24L74,69.6l6.09-3-.17.26a27.78,27.78,0,0,1,1.14-7.33l.08.29-4.89-4.74-.15-.15.11-.19,5.86-9.61.1-.17.19.07,6.44,2.17-.23,0a28,28,0,0,1,6-4.36l-.11.19c0-2.45-.06-4.74-.09-6.8v-.15l.13,0,10.95-2.61.09,0,0,.07,2.2,4.54.56,1.18Z" style="fill:#e0e0e0"></path><rect x="127.79" y="267.96" width="45.67" height="4.39" transform="translate(301.24 540.32) rotate(180)" style="fill:#e0e0e0"></rect><rect x="127.79" y="260.54" width="45.67" height="4.39" transform="translate(301.24 525.47) rotate(180)" style="fill:#e0e0e0"></rect><rect x="153.69" y="275.91" width="19.76" height="4.39" transform="translate(327.15 556.21) rotate(180)" style="fill:#e0e0e0"></rect><path d="M386.42,460.16c.7-2.74-1.12-5.49-3.15-7.47s-4.45-3.75-5.51-6.38c-1.73-4.25.53-9.79-2.4-13.33-1.71-2.08-4.78-2.77-6.31-5a11.47,11.47,0,0,1-1.38-4,40.63,40.63,0,0,0-10.21-18.84,35.19,35.19,0,0,0,4.07,18.19c1.19,2.23,2.64,4.4,3,6.9.66,4.05-1.58,8.24-.56,12.21,1.16,4.55,6.3,7.57,6.57,12.25.22,4-3.21,7.46-2.93,11.42a10.66,10.66,0,0,0,1.79,4.69c3.09,5.08,7.61,8.56,14.44,8.41l8.35.24Z" style="fill:#f5f5f5"></path><path d="M393.93,479.68a6.71,6.71,0,0,0,2.3-.06,13.74,13.74,0,0,0,2.71-.7,11.36,11.36,0,0,0,3.34-1.85,4.72,4.72,0,0,0,1.37-1.85,8.54,8.54,0,0,0,.38-2.5,25.32,25.32,0,0,1,.18-2.7,7.48,7.48,0,0,1,1-2.7c1-1.73,2.6-3.38,3.11-5.73s.14-4.82-.27-7.33-.79-5.23.16-7.85,2.7-5,3.6-7.94.45-6.18.62-9.34a12.32,12.32,0,0,1,1.07-4.64c.66-1.49,1.59-2.89,2.32-4.45,1.46-3.15,1.7-6.72,2.09-10.22.19-1.77.38-3.55.57-5.35a26.15,26.15,0,0,1,.9-5.34,45.56,45.56,0,0,1,2-5.19,17.93,17.93,0,0,0,.95-2.7,25.85,25.85,0,0,0,.25-2.88,32.91,32.91,0,0,0-.25-5.78c-.24-1.93-.6-3.84-.82-5.77,0-.12,0-.23,0-.34l0-.38-.34.17a12.87,12.87,0,0,0-4.48,3.83,20.26,20.26,0,0,0-2.73,5.1c-1.38,3.6-1.86,7.37-2.54,11a29.91,29.91,0,0,1-3.38,10.13c-.91,1.49-2,2.86-3,4.31a11.9,11.9,0,0,0-2.05,4.78c-.47,3.54,1.49,6.63,1.11,9.76a11,11,0,0,1-1.5,4.35c-.75,1.34-1.64,2.58-2.48,3.83a24.94,24.94,0,0,0-2.22,3.87,12,12,0,0,0-1,4.19c-.19,2.82.22,5.49,0,8a18.38,18.38,0,0,1-2,6.88c-1,2.06-2.11,3.93-3,5.73-.46.91-.9,1.79-1.25,2.68a13.33,13.33,0,0,0-.72,2.64,17,17,0,0,0,0,4.77,12,12,0,0,0,2.43,6.07,4.9,4.9,0,0,0,.68.73,3,3,0,0,0,.55.46c.31.23.48.33.48.33a10,10,0,0,1-1.63-1.59,12,12,0,0,1-2.3-6,16.24,16.24,0,0,1,.08-4.7,12.8,12.8,0,0,1,.72-2.58c.35-.87.79-1.74,1.26-2.64.94-1.79,2.07-3.65,3.09-5.72a18.82,18.82,0,0,0,2.09-7c.21-2.58-.2-5.26,0-8a11.84,11.84,0,0,1,1-4.06,24.67,24.67,0,0,1,2.2-3.79c.84-1.24,1.73-2.49,2.51-3.86a11.28,11.28,0,0,0,1.57-4.52c.38-3.34-1.57-6.45-1.09-9.74a11.25,11.25,0,0,1,2-4.57c.95-1.43,2.05-2.79,3-4.32a30.21,30.21,0,0,0,3.45-10.3c.69-3.62,1.17-7.34,2.52-10.87a20.21,20.21,0,0,1,2.67-5,12.45,12.45,0,0,1,4.29-3.67l-.39-.21c0,.11,0,.22,0,.34.22,1.95.58,3.87.82,5.77a34.09,34.09,0,0,1,.25,5.7,27.84,27.84,0,0,1-.24,2.79,17.26,17.26,0,0,1-.92,2.61,46.64,46.64,0,0,0-2,5.24,27,27,0,0,0-.91,5.44c-.19,1.8-.38,3.58-.56,5.34-.38,3.52-.62,7-2,10.08-.7,1.51-1.63,2.92-2.32,4.45a13,13,0,0,0-1.09,4.82c-.16,3.22.27,6.37-.58,9.23s-2.66,5.24-3.57,7.94-.54,5.55-.13,8,.84,5,.31,7.19-2.05,3.88-3,5.66a7.72,7.72,0,0,0-1,2.8,21.93,21.93,0,0,0-.16,2.74,8.49,8.49,0,0,1-.35,2.43,4.45,4.45,0,0,1-1.28,1.77,11.34,11.34,0,0,1-3.27,1.86,13.72,13.72,0,0,1-2.67.74,11.53,11.53,0,0,1-1.7.18Z" style="fill:#e0e0e0"></path><path d="M419.77,381.09s0,.08-.08.25-.1.45-.18.75c-.16.66-.35,1.66-.66,2.9s-1.07,2.64-1.71,4.37-1.33,3.71-1.95,5.94-1.17,4.71-1.75,7.37a30.83,30.83,0,0,1-2.63,8.17c-.68,1.37-1.44,2.74-2,4.25a19.84,19.84,0,0,0-1.18,4.8A97.05,97.05,0,0,1,405.85,430l-4.62,19.34c-1.45,5.93-2.76,11.27-3.87,15.77s-1.95,8.09-2.56,10.64c-.29,1.23-.51,2.2-.67,2.9-.07.31-.12.56-.17.76a.86.86,0,0,0,0,.26s0-.08.09-.25l.21-.74c.19-.7.44-1.66.77-2.88.65-2.54,1.58-6.15,2.73-10.6s2.48-9.82,4-15.74,3-12.48,4.66-19.34A95.78,95.78,0,0,0,408.11,420a19.41,19.41,0,0,1,1.13-4.68c.59-1.47,1.34-2.84,2-4.22a30.86,30.86,0,0,0,2.62-8.3c.56-2.66,1.09-5.13,1.69-7.36s1.23-4.21,1.86-5.93,1.33-3.15,1.64-4.43.43-2.26.56-2.93c.05-.31.09-.56.13-.76A1,1,0,0,0,419.77,381.09Z" style="fill:#e0e0e0"></path><path d="M395.4,479.7c5.44-3.27,7-13.13,4.64-19.05s-6.32-11.3-7-17.62c-.5-4.86,1.07-9.85-.09-14.59-1.56-6.4-7.85-11.33-7.81-17.92,0-3.69,2.1-7.18,1.91-10.88-.23-4.52-3.73-8.1-5.9-12.07-3.33-6.09-3.59-13.31-4.76-20.15s-3.81-14.16-9.9-17.49c-.87,5.82-2.37,9.81-1.85,17.68.19,2.83,3.51,8.22,4,14.42.29,3.7.49,7.41.74,11.12s.5,7.28,1.81,10.64c1,2.59,2.61,4.93,3.36,7.59,1.41,5-.37,10.47.77,15.55,1,4.31,4,8,4.62,12.38.89,6.13-3.05,12.54-1,18.39,1,2.9,3.43,5.22,4.12,8.22.54,2.33,0,4.8.47,7.14.79,3.76,8,6.65,11.84,6.4" style="fill:#e0e0e0"></path><path d="M368.05,355.69a1,1,0,0,0,0,.33c0,.24.08.56.13,1,.13.84.28,2.07.57,3.67s1.15,3.4,1.82,5.57,1.42,4.66,2.05,7.46,1.17,5.9,1.74,9.23a38.43,38.43,0,0,0,2.86,10.43c.77,1.74,1.64,3.48,2.3,5.34a24.14,24.14,0,0,1,1.18,5.89,119.1,119.1,0,0,0,1.68,12.7c1.72,8.61,3.35,16.8,4.85,24.26l4.17,19.76c1.2,5.59,2.18,10.13,2.86,13.31.34,1.54.61,2.75.81,3.61l.22.94a1.55,1.55,0,0,0,.09.32,1.14,1.14,0,0,0,0-.33c0-.24-.1-.56-.17-.95-.17-.86-.4-2.08-.7-3.63-.65-3.19-1.57-7.74-2.7-13.35s-2.53-12.34-4.06-19.78-3.1-15.65-4.81-24.25a120.57,120.57,0,0,1-1.67-12.66,24.87,24.87,0,0,0-1.23-6c-.67-1.9-1.56-3.65-2.33-5.38a38.39,38.39,0,0,1-2.87-10.3c-.59-3.32-1.15-6.43-1.81-9.23s-1.39-5.31-2.13-7.48-1.57-4-1.91-5.52-.5-2.81-.66-3.64l-.19-.94C368.08,355.8,368.05,355.69,368.05,355.69Z" style="fill:#ebebeb"></path><path d="M345.72,468.51a17.81,17.81,0,0,0-16.45,2.7,21.45,21.45,0,0,0-31.81-14.36,15,15,0,0,0-21.8-13q-6.21-21.76-12.41-43.53l-31.6,1q-7.4,24.45-14.8,48.88c-7.15-6.65-17.11-10.92-26.72-9.2s-18.08,10.6-17.37,20.34a18.62,18.62,0,0,0-26.44,17.16L357,480.82A17.8,17.8,0,0,0,345.72,468.51Z" style="fill:#f5f5f5"></path></g><g id="freepik--Plant--inject-5"><path d="M91.84,352.93c-8.76-13.4-8.42-33,2-45.11,3.25-3.76,7.79-7,12.74-6.6s9.15,4.78,10.69,9.63,1,10.1.11,15.11c-1.27,7-3.4,14.18-8.26,19.38s-11.07,11-17.32,7.59" style="fill:#00C0B5"></path><path d="M95.75,417a20,20,0,0,1,5.58-22.74c2-1.64,4.65-2.92,7.16-2.25s4.28,3.29,4.64,5.93a16.53,16.53,0,0,1-1.32,7.79c-1.29,3.5-3,7-6,9.25s-7.14,4.35-10,2" style="fill:#00C0B5"></path><path d="M74.62,412.38A29,29,0,0,0,60,381.8c-3.33-1.74-7.44-2.76-10.81-1.08s-5.1,5.93-4.82,9.77,2.12,7.39,4.16,10.66c2.85,4.57,6.36,9,11.24,11.32s11.4,4.06,14.84-.09" style="fill:#00C0B5"></path><path d="M76.14,380.26c4.19-13.54-2.92-29.95-14.77-37.71-3.68-2.41-8.34-4.09-12.45-2.53s-6.63,6.3-6.76,10.8,1.6,8.84,3.59,12.88c2.79,5.66,6.34,11.25,11.75,14.49s14.15,6.5,18.64,2.07" style="fill:#00C0B5"></path><path d="M84.56,446.42a2.91,2.91,0,0,1-.14-.66c-.07-.49-.16-1.12-.28-1.89-.06-.42-.12-.87-.19-1.36l-.31-1.61c-.22-1.16-.45-2.48-.82-3.91-.18-.72-.36-1.47-.55-2.25s-.46-1.59-.71-2.42c-.45-1.68-1.12-3.42-1.74-5.27a101.61,101.61,0,0,0-5.23-11.58,101.65,101.65,0,0,0-6.76-10.77c-1.2-1.54-2.28-3.06-3.43-4.36l-1.62-1.93c-.55-.59-1.08-1.15-1.58-1.7-1-1.1-2-2-2.8-2.85l-1.17-1.14-1-.92-1.42-1.27a2.91,2.91,0,0,1-.47-.48,2.69,2.69,0,0,1,.54.39l1.49,1.2,1.07.87,1.21,1.12c.87.8,1.86,1.71,2.87,2.8l1.62,1.69L64.76,400c1.18,1.3,2.28,2.82,3.49,4.36a97.25,97.25,0,0,1,6.85,10.8,97.54,97.54,0,0,1,5.22,11.68c.61,1.87,1.26,3.62,1.7,5.32.23.84.46,1.65.68,2.43s.35,1.55.51,2.28c.36,1.45.56,2.78.75,3.94.09.58.18,1.12.26,1.63s.1.95.14,1.37c.08.78.13,1.41.18,1.91A3.12,3.12,0,0,1,84.56,446.42Z" style="fill:#263238"></path><path d="M84.25,448.85a.92.92,0,0,1,0-.27c0-.21,0-.47.06-.79.07-.73.16-1.74.28-3,.06-.66.13-1.39.21-2.17s.08-1.67.13-2.6c.07-1.86.25-4,.18-6.31,0-1.18,0-2.4,0-3.68s-.14-2.6-.2-4c-.1-2.75-.47-5.67-.8-8.75A137,137,0,0,0,80,397.62a137.93,137.93,0,0,0-7.25-18.77c-1.4-2.76-2.68-5.41-4.1-7.77-.7-1.19-1.32-2.37-2-3.44l-2-3.1c-1.22-2-2.52-3.67-3.59-5.19-.55-.76-1-1.47-1.52-2.1l-1.37-1.71-1.87-2.37c-.19-.25-.35-.45-.47-.62s-.16-.22-.15-.23.07.06.19.19l.52.59,2,2.3,1.4,1.68c.5.62,1,1.33,1.57,2.08,1.09,1.5,2.42,3.17,3.67,5.16l2,3.08c.7,1.08,1.33,2.25,2,3.44,1.45,2.36,2.74,5,4.16,7.78a133.62,133.62,0,0,1,7.33,18.84,132.4,132.4,0,0,1,4.12,19.78c.32,3.09.68,6,.75,8.79.06,1.38.17,2.71.17,4s0,2.51,0,3.69c0,2.35-.17,4.47-.27,6.33-.06.94-.1,1.8-.18,2.6s-.18,1.51-.26,2.17c-.16,1.26-.29,2.27-.39,3,0,.31-.08.57-.11.78A1,1,0,0,1,84.25,448.85Z" style="fill:#263238"></path><path d="M107.06,317.4a1,1,0,0,1-.11.25l-.38.7c-.37.65-.87,1.55-1.5,2.68-.32.58-.71,1.21-1.08,1.93l-1.17,2.35L101.47,328c-.46,1-.89,2-1.37,3.1s-1,2.22-1.49,3.42-1,2.47-1.45,3.78l-.77,2-.7,2.09q-.72,2.12-1.47,4.35c-1.85,6-3.61,12.69-5.1,19.79s-2.45,14-3.19,20.2-1.11,11.9-1.24,16.66c-.12,2.37-.15,4.52-.15,6.41s0,3.52,0,4.85,0,2.32,0,3.06c0,.33,0,.59,0,.8a.8.8,0,0,1,0,.27,1.14,1.14,0,0,1,0-.27l0-.79c0-.75-.09-1.77-.15-3.07s-.11-3-.11-4.85,0-4.05.07-6.43c.08-4.76.51-10.43,1.12-16.7s1.72-13.12,3.16-20.25,3.27-13.83,5.16-19.84c.51-1.49,1-2.94,1.49-4.36.25-.7.49-1.4.72-2.08l.79-2c.51-1.31,1-2.57,1.49-3.78s1-2.33,1.51-3.42,1-2.12,1.42-3.09l1.39-2.69c.44-.84.85-1.62,1.22-2.34s.79-1.34,1.13-1.91l1.59-2.63.43-.67C107,317.47,107.05,317.39,107.06,317.4Z" style="fill:#263238"></path><path d="M104.08,399.62a12.83,12.83,0,0,1-.93,1.64c-.64,1-1.52,2.53-2.55,4.43s-2.17,4.2-3.32,6.81a91.71,91.71,0,0,0-3.22,8.69c-1,3.15-1.69,6.2-2.25,9s-.89,5.34-1.1,7.49-.34,3.89-.39,5.1a12,12,0,0,1-.15,1.88,10.77,10.77,0,0,1-.07-1.89c0-1.21,0-3,.21-5.12s.49-4.73,1-7.56A81.94,81.94,0,0,1,93.51,421a84,84,0,0,1,3.29-8.74c1.18-2.61,2.35-4.91,3.44-6.79s2-3.37,2.72-4.36A12.68,12.68,0,0,1,104.08,399.62Z" style="fill:#263238"></path><polygon points="67.36 440.38 105.84 440.38 101.18 479.69 72.15 479.69 67.36 440.38" style="fill:#455a64"></polygon><polygon points="68.76 475.45 72.03 479.69 101.18 479.69 104.54 475.58 68.76 475.45" style="fill:#263238"></polygon><path d="M104.34,451.94c0,.16-8,.29-17.84.29s-17.83-.13-17.83-.29,8-.28,17.83-.28S104.34,451.79,104.34,451.94Z" style="fill:#fafafa"></path><path d="M104.34,454.56c0,.16-8,.29-17.84.29s-17.83-.13-17.83-.29,8-.29,17.83-.29S104.34,454.4,104.34,454.56Z" style="fill:#fafafa"></path><path d="M103.86,457.09c0,.16-7.71.29-17.21.29s-17.21-.13-17.21-.29,7.7-.28,17.21-.28S103.86,456.94,103.86,457.09Z" style="fill:#fafafa"></path><path d="M73.23,355.68s0,.13,0,.37,0,.64-.09,1.07c-.1,1-.23,2.31-.39,3.91-.35,3.31-.87,7.87-1.46,12.91l-.06.56,0,.17H71c-5,.08-9.4.13-12.61.14h-3.8l-1,0-.36,0s.12,0,.36-.05l1,0,3.8-.12c3.21-.09,7.66-.18,12.6-.26l-.19.17.07-.56c.59-5,1.14-9.59,1.56-12.89.22-1.6.39-2.92.52-3.9.07-.42.12-.77.16-1.06A1.35,1.35,0,0,1,73.23,355.68Z" style="fill:#263238"></path><path d="M64.48,343.92s0,.14,0,.39,0,.66,0,1.1c0,1,0,2.39,0,4.06,0,3.42-.15,8.15-.27,13.37,0,.22,0,.43,0,.62v.21l-.21,0a120.09,120.09,0,0,0-12.94-.29c-1.65.05-3,.12-3.9.17l-1.06.05h-.37a1.47,1.47,0,0,1,.37-.07c.24,0,.59-.08,1-.12.92-.1,2.25-.21,3.9-.29a101.75,101.75,0,0,1,13,.17l-.21.19c0-.19,0-.4,0-.62.13-5.22.26-9.95.38-13.37.07-1.67.12-3,.16-4,0-.44,0-.81.07-1.1A2.33,2.33,0,0,1,64.48,343.92Z" style="fill:#263238"></path><path d="M54.24,339.92a6.11,6.11,0,0,1,.24,1.13c.15.79.34,1.83.57,3.09.5,2.61,1.28,6.21,2.38,10.15l.12.42-.39-.19-.46-.22a33,33,0,0,0-10.26-3c-1.37-.17-2.48-.23-3.25-.26A8.28,8.28,0,0,1,42,351a1,1,0,0,1,.31,0c.2,0,.5,0,.89,0a28,28,0,0,1,3.28.13A31,31,0,0,1,56.86,354l.47.22-.27.23a98.8,98.8,0,0,1-2.27-10.21c-.22-1.32-.37-2.38-.45-3.12A7.48,7.48,0,0,1,54.24,339.92Z" style="fill:#263238"></path><path d="M108.59,411.57c0,.06-1.12-.05-2.91-.12a49,49,0,0,0-7,.22l-1.61.2-.19,0,0-.18c-.42-2.33-.76-4.38-1-5.85a16,16,0,0,1-.3-2.38,15.87,15.87,0,0,1,.55,2.33c.3,1.46.7,3.5,1.13,5.83l-.22-.16,1.63-.2a38.78,38.78,0,0,1,7-.12c.9.07,1.63.16,2.13.24A3.71,3.71,0,0,1,108.59,411.57Z" style="fill:#263238"></path><path d="M112.22,404.35c0,.06-1.08-.19-2.82-.4a30.32,30.32,0,0,0-6.83-.07c-.41,0-.82.09-1.2.15l-.2,0,0-.2c-.25-2.4-.44-4.52-.57-6a16.47,16.47,0,0,1-.12-2.45,16.08,16.08,0,0,1,.38,2.42c.19,1.52.44,3.64.69,6l-.22-.17c.39-.06.8-.12,1.22-.16a27.08,27.08,0,0,1,6.91.18c.87.15,1.57.31,2,.43A2.39,2.39,0,0,1,112.22,404.35Z" style="fill:#263238"></path><path d="M114.83,335.93a2.5,2.5,0,0,1-.38.2l-1.13.5-4.16,1.77-13.79,5.71-.74.31-.18.07-.07-.18-5.83-13.15c-.7-1.64-1.28-3-1.71-4l-.45-1.08a1.69,1.69,0,0,1-.13-.39,1.42,1.42,0,0,1,.2.35l.52,1.06,1.82,3.93c1.53,3.38,3.62,8,5.93,13.11l-.25-.11.75-.3,13.83-5.6,4.2-1.66,1.16-.43A1.64,1.64,0,0,1,114.83,335.93Z" style="fill:#263238"></path><path d="M118.2,319.31a2.09,2.09,0,0,1-.34.25l-1,.65-3.76,2.34-12.53,7.64-.2.12-.08-.22-.23-.6C98,324,96.16,319,94.8,315.31c-.64-1.78-1.17-3.24-1.55-4.31-.17-.47-.3-.86-.41-1.17a2.9,2.9,0,0,1-.11-.42,1.68,1.68,0,0,1,.19.39l.47,1.15c.41,1.06,1,2.51,1.67,4.27,1.38,3.66,3.27,8.64,5.36,14.13l.22.61-.28-.1L113,322.32l3.82-2.24,1-.59C118.06,319.36,118.19,319.29,118.2,319.31Z" style="fill:#263238"></path><path d="M117.09,310.44a4.6,4.6,0,0,1-.82.48c-.54.3-1.32.74-2.27,1.33a40.42,40.42,0,0,0-7,5.46l-.48.47.16-.66c.17-.68.33-1.41.44-2.16a25,25,0,0,0-.54-10.25,27,27,0,0,0-1-3,7.84,7.84,0,0,1-.41-1.09,5.08,5.08,0,0,1,.55,1,22.32,22.32,0,0,1,1.12,3,24.09,24.09,0,0,1,.66,10.39c-.12.76-.28,1.5-.46,2.2l-.32-.19a36.92,36.92,0,0,1,7.12-5.4c1-.56,1.77-1,2.34-1.23A4.54,4.54,0,0,1,117.09,310.44Z" style="fill:#263238"></path><path d="M73.18,396.72a5.08,5.08,0,0,1-.17,1c-.14.63-.33,1.55-.54,2.7a66.6,66.6,0,0,0-1,9.11v.18h-.18l-.86,0c-3.81.23-7.27.42-9.77.54l-3,.11a5.41,5.41,0,0,1-1.09,0,7.83,7.83,0,0,1,1.08-.14l3-.24c2.5-.19,5.95-.42,9.77-.65l.86-.05-.18.19a55.39,55.39,0,0,1,1.16-9.15c.24-1.15.48-2.06.65-2.69A5.55,5.55,0,0,1,73.18,396.72Z" style="fill:#263238"></path><path d="M65.62,385.88a5,5,0,0,1-.06,1c-.08.72-.19,1.63-.31,2.74-.28,2.31-.7,5.53-1.18,9.13l0,.16h-.16l-1.24.08c-3.91.27-7.44.67-10,1l-3,.41a6.45,6.45,0,0,1-1.11.11,5.34,5.34,0,0,1,1.08-.26c.71-.14,1.73-.33,3-.53,2.54-.4,6.07-.85,10-1.12l1.24-.08-.18.17c.5-3.6,1-6.81,1.31-9.12l.42-2.72A5.91,5.91,0,0,1,65.62,385.88Z" style="fill:#263238"></path><path d="M56.72,381.21c.06,0-.18,1.06-.45,2.78a48.4,48.4,0,0,0-.62,6.81V391l-.21,0-.65-.08a59.73,59.73,0,0,0-7.27-.43l-2.21,0a3.94,3.94,0,0,1-.81,0,2.84,2.84,0,0,1,.8-.14c.53,0,1.28-.11,2.22-.14a44.71,44.71,0,0,1,7.32.32l.65.08-.22.19a40.52,40.52,0,0,1,.74-6.85c.18-.86.34-1.54.48-2A3.37,3.37,0,0,1,56.72,381.21Z" style="fill:#263238"></path><path d="M107.42,392.05A34.38,34.38,0,0,1,105.7,396a33.8,33.8,0,0,1-1.85,3.84,29,29,0,0,1,3.57-7.75Z" style="fill:#263238"></path><path d="M112.26,397.18a38.32,38.32,0,0,0-4.38.88,38.91,38.91,0,0,0-4.11,1.75,10,10,0,0,1,4-2.12A9.85,9.85,0,0,1,112.26,397.18Z" style="fill:#263238"></path></g><g id="freepik--Gears--inject-5"><path d="M359,179a25.09,25.09,0,0,1,2.49-6.29l-3.43-5.25,7.21-7.46,5.36,3.26a25.49,25.49,0,0,1,6.21-2.69l1.28-6.14,10.38-.17,1.48,6.09a25.94,25.94,0,0,1,6.3,2.49l5.25-3.43,7.45,7.22L405.73,172a25.52,25.52,0,0,1,2.7,6.21l6.13,1.28.17,10.38-6.09,1.48a25.32,25.32,0,0,1-2.49,6.29l3.43,5.25-7.21,7.46L397,207.07a25.11,25.11,0,0,1-6.21,2.69l-1.29,6.14-10.37.17L377.65,210a25.63,25.63,0,0,1-6.29-2.49l-5.25,3.43-7.45-7.22,3.25-5.36a25.81,25.81,0,0,1-2.69-6.2l-6.13-1.29-.17-10.37L359,179Zm13.68,5.88a11.13,11.13,0,1,0,10.94-11.31A11.13,11.13,0,0,0,372.69,184.87Z" style="fill:#00C0B5;fill-rule:evenodd"></path><path d="M329,223.77a12.52,12.52,0,0,1,1.21-3.06l-1.67-2.55,3.5-3.61,2.61,1.58a12.26,12.26,0,0,1,3-1.31l.62-3,5-.08.72,3a12,12,0,0,1,3.05,1.2l2.55-1.66,3.62,3.5-1.58,2.6a12.72,12.72,0,0,1,1.31,3l3,.62.09,5-3,.72a12.45,12.45,0,0,1-1.21,3.05l1.67,2.55L350.08,239l-2.6-1.58a12.23,12.23,0,0,1-3,1.3l-.62,3-5,.08-.72-2.95a12.29,12.29,0,0,1-3-1.21l-2.55,1.66-3.62-3.5,1.58-2.6a12.65,12.65,0,0,1-1.31-3l-3-.63-.08-5,3-.72Zm6.64,2.85a5.4,5.4,0,1,0,5.31-5.49A5.42,5.42,0,0,0,335.68,226.62Z" style="fill:#00C0B5;fill-rule:evenodd"></path><path d="M304,178.47a15.47,15.47,0,0,1,1.54-3.91l-2.13-3.27,4.49-4.63,3.33,2a15.82,15.82,0,0,1,3.86-1.67l.8-3.82,6.45-.1.92,3.79a15.62,15.62,0,0,1,3.91,1.54l3.26-2.13,4.64,4.49-2,3.33a15.85,15.85,0,0,1,1.68,3.86l3.81.8.11,6.45-3.79.92a15.64,15.64,0,0,1-1.55,3.91l2.14,3.26L331,198l-3.33-2a15.85,15.85,0,0,1-3.86,1.68l-.8,3.81-6.45.11-.92-3.79a15.49,15.49,0,0,1-3.91-1.55l-3.27,2.14-4.63-4.49,2-3.33a15.82,15.82,0,0,1-1.67-3.86l-3.82-.8-.1-6.45,3.79-.92Zm8.5,3.65a6.92,6.92,0,1,0,6.81-7A6.92,6.92,0,0,0,312.52,182.12Z" style="fill:none"></path><path d="M312.52,182.12s0-.15-.06-.44a5,5,0,0,1,.11-1.28,6.92,6.92,0,0,1,2.43-4,7.19,7.19,0,0,1,6.8-1.22,7.24,7.24,0,0,1,.22,13.64,7.19,7.19,0,0,1-6.83-1,6.88,6.88,0,0,1-2.56-3.94,5.61,5.61,0,0,1-.16-1.28c0-.29,0-.45,0-.45s.07.62.38,1.65a6.93,6.93,0,0,0,2.59,3.6,6.61,6.61,0,1,0-.17-10.59,6.88,6.88,0,0,0-2.47,3.68C312.57,181.51,312.59,182.12,312.52,182.12Z" style="fill:#263238"></path><path d="M304,178.47a7.45,7.45,0,0,1-.93.28l-2.83.75.09-.11c0,1.67.1,3.84.17,6.45l-.15-.18,3.82.77.13,0,0,.12a15.68,15.68,0,0,0,1.67,3.79l.07.13-.07.12c-.63,1-1.31,2.17-2,3.35l0-.33,4.65,4.47-.36,0,3.26-2.15.15-.1.16.09a16.26,16.26,0,0,0,3.84,1.51l.19,0,0,.19.94,3.78-.32-.25,6.45-.12-.33.27c.24-1.19.52-2.49.79-3.81l0-.21.21-.06a15.47,15.47,0,0,0,3.77-1.64l.18-.11.18.11,3.34,2-.45.06,4.49-4.64-.05.45L333,190.25l-.12-.18.11-.2a16,16,0,0,0,1.51-3.81h0l.27-.27h.11l.12,0,.24-.06.47-.12.95-.23,1.89-.46-.28.36c0-2.18-.07-4.33-.1-6.45l.29.35-3.82-.8-.21,0-.06-.21a15.25,15.25,0,0,0-1.63-3.77l-.11-.18.11-.19,2-3.32.06.43-4.63-4.5.42,0-3.27,2.13-.17.11-.17-.1a15.64,15.64,0,0,0-3.83-1.53l-.18,0,0-.19c-.31-1.3-.61-2.56-.91-3.79l.3.23-6.45.08.27-.22-.82,3.81,0,.16-.15,0a15.68,15.68,0,0,0-3.81,1.63l-.12.07-.13-.07-3.32-2,.27,0c-1.75,1.77-3.24,3.29-4.52,4.6l0-.21,2.09,3.29,0,.06,0,.06a20.16,20.16,0,0,0-1.65,3.86.82.82,0,0,1,0-.26c0-.17.09-.43.19-.76a14.91,14.91,0,0,1,1.22-2.95v.12l-2.17-3.24-.07-.11.09-.09,4.45-4.67.12-.13.15.09,3.34,2h-.25a15.92,15.92,0,0,1,3.92-1.72l-.19.19c.25-1.21.51-2.47.78-3.81l.05-.22h.22l6.45-.13h.24l.06.24c.31,1.23.62,2.48.94,3.78l-.23-.23a15.7,15.7,0,0,1,4,1.57H327l3.26-2.14.22-.15.2.19,4.64,4.48.2.19-.14.24c-.67,1.09-1.34,2.2-2,3.33v-.36a15.94,15.94,0,0,1,1.71,3.94l-.27-.25,3.82.79.28.06v.29c0,2.12.07,4.27.1,6.45v.29l-.29.07-1.88.46-.95.23-.48.12-.24.06-.12,0H335c.12-.11-.27.27.27-.26h0a16.3,16.3,0,0,1-1.59,4v-.38c.73,1.12,1.46,2.23,2.13,3.27l.16.24-.2.21-4.49,4.63-.2.2-.25-.14c-1.14-.7-2.28-1.4-3.33-2h.37a16.09,16.09,0,0,1-3.95,1.7l.25-.26c-.28,1.32-.55,2.62-.81,3.81l-.05.27H323l-6.45.09h-.27l-.06-.26c-.31-1.31-.63-2.61-.91-3.78l.23.23a16.54,16.54,0,0,1-4-1.59h.31l-3.27,2.12-.19.12-.17-.16-4.61-4.5-.15-.15.1-.17,2.05-3.33v.25a15.92,15.92,0,0,1-1.68-3.92l.17.15L300.3,186l-.15,0v-.15c0-2.61,0-4.77,0-6.45v-.09l.09,0,2.81-.63.74-.15A.89.89,0,0,1,304,178.47Z" style="fill:#263238"></path><g style="opacity:0.8"><path d="M359,179a25.09,25.09,0,0,1,2.49-6.29l-3.43-5.25,7.21-7.46,5.36,3.26a25.49,25.49,0,0,1,6.21-2.69l1.28-6.14,10.38-.17,1.48,6.09a25.94,25.94,0,0,1,6.3,2.49l5.25-3.43,7.45,7.22L405.73,172a25.52,25.52,0,0,1,2.7,6.21l6.13,1.28.17,10.38-6.09,1.48a25.32,25.32,0,0,1-2.49,6.29l3.43,5.25-7.21,7.46L397,207.07a25.11,25.11,0,0,1-6.21,2.69l-1.29,6.14-10.37.17L377.65,210a25.63,25.63,0,0,1-6.29-2.49l-5.25,3.43-7.45-7.22,3.25-5.36a25.81,25.81,0,0,1-2.69-6.2l-6.13-1.29-.17-10.37L359,179Zm13.68,5.88a11.13,11.13,0,1,0,10.94-11.31A11.13,11.13,0,0,0,372.69,184.87Z" style="fill:#fff;fill-rule:evenodd"></path></g></g><g id="freepik--Android--inject-5"><path d="M234.88,401.74c-3,15.43-5.45,44.86-8.49,60.29,2.37-4.87-1.89-11.54-7.31-11.43s-9.41,6.93-6.86,11.71c-.85-3.51-5.63-5-8.81-3.25s-4.68,5.61-4.59,9.22,3,9,6.34,11.32h80.31c5.06-1.49,9.78-5.4,10.57-10.62a10.9,10.9,0,0,0-7.58-11.69,11.17,11.17,0,0,0-12.71,5.87c1.48-2.82,3-5.71,3.35-8.87s-.67-6.69-3.34-8.42-7-.74-7.91,2.3c-1.38-11.63-6.94-46.78-6.94-46.78" style="fill:#00C0B5"></path><g style="opacity:0.8"><path d="M234.88,401.74c-3,15.43-5.45,44.86-8.49,60.29,2.37-4.87-1.89-11.54-7.31-11.43s-9.41,6.93-6.86,11.71c-.85-3.51-5.63-5-8.81-3.25s-4.68,5.61-4.59,9.22,3,9,6.34,11.32h80.31c5.06-1.49,9.78-5.4,10.57-10.62a10.9,10.9,0,0,0-7.58-11.69,11.17,11.17,0,0,0-12.71,5.87c1.48-2.82,3-5.71,3.35-8.87s-.67-6.69-3.34-8.42-7-.74-7.91,2.3c-1.38-11.63-6.94-46.78-6.94-46.78" style="fill:#fff"></path></g><path d="M238.21,401.41A36.9,36.9,0,0,0,233.35,421c.1,2.79.64,5.88,2.88,7.55s6.4.32,6.16-2.45c-.55,6.22.3,12.05,2.83,17a9,9,0,0,0,16.09-.19,29.19,29.19,0,0,0,3.17-14.79c-.59-9.31-3.4-17.95-6.25-26.84l-20,.19" style="fill:#00C0B5"></path><g style="opacity:0.5"><path d="M238.21,401.41A36.9,36.9,0,0,0,233.35,421c.1,2.79.64,5.88,2.88,7.55s6.4.32,6.16-2.45c-.55,6.22.3,12.05,2.83,17a9,9,0,0,0,16.09-.19,29.19,29.19,0,0,0,3.17-14.79c-.59-9.31-3.4-17.95-6.25-26.84l-20,.19" style="fill:#fff"></path></g><path d="M242.6,401.54c-1.25,2.17-2.36,5-1.19,7.22,1,1.81,3.21,2.57,4.37,4.26s1,3.86.94,5.88.06,4.29,1.53,5.68c1.82,1.72,5,1.15,6.73-.67s2.25-4.47,2.28-7c.06-5.75-1.7-10.29-3.91-15.6" style="fill:#00C0B5"></path><g style="opacity:0.30000000000000004"><path d="M242.6,401.54c-1.25,2.17-2.36,5-1.19,7.22,1,1.81,3.21,2.57,4.37,4.26s1,3.86.94,5.88.06,4.29,1.53,5.68c1.82,1.72,5,1.15,6.73-.67s2.25-4.47,2.28-7c.06-5.75-1.7-10.29-3.91-15.6" style="fill:#fff"></path></g><path d="M200.06,434.72a4.55,4.55,0,1,1-4.54-4.54A4.55,4.55,0,0,1,200.06,434.72Z" style="fill:#00C0B5"></path><g style="opacity:0.8"><path d="M200.06,434.72a4.55,4.55,0,1,1-4.54-4.54A4.55,4.55,0,0,1,200.06,434.72Z" style="fill:#fff"></path></g><path d="M293,444.42a6,6,0,0,1,7.56-9,3.64,3.64,0,0,1-.52-3.55,5.7,5.7,0,0,1,2.42-2.78,8.26,8.26,0,0,1,10,1.31,9.24,9.24,0,0,1,1.14,10.39,12.2,12.2,0,0,1-8.89,6c-3.67.58-9.68.46-11.76-2.37" style="fill:#00C0B5"></path><g style="opacity:0.8"><path d="M293,444.42a6,6,0,0,1,7.56-9,3.64,3.64,0,0,1-.52-3.55,5.7,5.7,0,0,1,2.42-2.78,8.26,8.26,0,0,1,10,1.31,9.24,9.24,0,0,1,1.14,10.39,12.2,12.2,0,0,1-8.89,6c-3.67.58-9.68.46-11.76-2.37" style="fill:#fff"></path></g><path d="M222,197.2s3.5,29,23.37,29.89c23,1,24.11-29.89,24.11-29.89Z" style="fill:#263238"></path><path d="M224.83,208.51s-10.36,2.67-7.05,11.44L235.87,235a13.71,13.71,0,0,0,6.91-9.9l-17.46-15.66" style="fill:#263238"></path><path d="M222,197.2s23.83,22.82,47.48,0Z" style="fill:#455a64"></path><path d="M249.71,121.33a.25.25,0,1,1-.25-.25A.25.25,0,0,1,249.71,121.33Z" style="fill:#fff"></path><rect x="236.26" y="99.48" width="21.29" height="19.68" style="fill:#263238"></rect><path d="M251.11,110.14s10.91-.25,12.45-10.92c.75-5.16,1.41-15.89,1.9-25.62C266,63.14,259.15,52.48,247,52.53h0c-11.21-.82-18.16,8.25-18.67,19.47,0,0,.83,22.68,2.71,27.87s7.75,11,17.48,10.31" style="fill:#00C0B5"></path><rect x="231.05" y="74.56" width="31.71" height="9.87" rx="4.84" style="fill:#263238"></rect><path d="M257.54,79.43A1.57,1.57,0,0,1,256,81a1.49,1.49,0,0,1-1.57-1.46A1.57,1.57,0,0,1,256,78,1.5,1.5,0,0,1,257.54,79.43Z" style="fill:#fff"></path><path d="M228.39,81.4c0,3.54-.66,6.42-1.47,6.42s-1.47-2.88-1.47-6.42.66-6.43,1.47-6.43S228.39,77.85,228.39,81.4Z" style="fill:#263238"></path><path d="M229.76,81.4c0,3.54-.72,6.42-1.61,6.42H227c-.66-.8-.42-3.52-.42-6.42s-.36-5.59.3-6.4c.15-.19,1.14,0,1.31,0C229,75,229.76,77.85,229.76,81.4Z" style="fill:#263238"></path><path d="M265.06,81c0-3.55.66-6.42,1.47-6.42S268,77.45,268,81s-.66,6.43-1.47,6.43S265.06,84.55,265.06,81Z" style="fill:#263238"></path><path d="M263.69,81c0-3.55.72-6.42,1.61-6.42h1.18c.66.79.42,3.52.42,6.42s.36,5.59-.29,6.4c-.15.19-1.15,0-1.31,0C264.41,87.43,263.69,84.55,263.69,81Z" style="fill:#263238"></path><g style="opacity:0.30000000000000004"><path d="M264.69,87c0,.54-.53,7.33-1,11.32-.42,3.53-1.49,6.42-4.23,8.69a13.48,13.48,0,0,1-7.85,3.29c-3.53.31-7.09.41-10.44-.72s-6.84-3.41-8.53-6.51c0,0,15,8,25.11,1.23,0,0,3.7-1.75,5-9.44C264,87.49,264.69,87,264.69,87Z"></path></g><path d="M257.7,85.83s.28,0,.81-.12a5.74,5.74,0,0,0,2.16-.8,5.92,5.92,0,0,0,2.37-2.7,5.76,5.76,0,0,0,.47-2.2,6.06,6.06,0,0,0-.4-2.49,5.81,5.81,0,0,0-4.24-3.58,21.82,21.82,0,0,0-3.28-.11h-3.53l-15.75,0a5.73,5.73,0,0,0-5.61,4.54,6.58,6.58,0,0,0,.31,3.66,5.83,5.83,0,0,0,5.52,3.54h3.33l6,0,8.67.09,2.35,0a4.16,4.16,0,0,1,.83,0,5.43,5.43,0,0,1-.83,0l-2.35.05-8.67.08-6,0-3.33,0a6.3,6.3,0,0,1-6-3.81,7,7,0,0,1-.35-4,6.27,6.27,0,0,1,6.11-5l15.75,0,3.53,0a19.88,19.88,0,0,1,3.37.14,6.24,6.24,0,0,1,4.5,3.86,6.69,6.69,0,0,1-.16,5,6.07,6.07,0,0,1-2.52,2.76,5.56,5.56,0,0,1-2.26.73A3.92,3.92,0,0,1,257.7,85.83Z" style="fill:#fff"></path><path d="M247,52.53a18.39,18.39,0,0,1,.22,3.08c.07,1.9.14,4.54.17,7.45s.05,5.55,0,7.46a18.35,18.35,0,0,1-.14,3.08,19.09,19.09,0,0,1-.23-3.08c-.07-1.91-.13-4.54-.17-7.45s0-5.54,0-7.45A19,19,0,0,1,247,52.53Z" style="fill:#fff"></path><path d="M247.46,110.46c-.14,0-.26-5.43-.26-12.13s.12-12.12.26-12.12.26,5.42.26,12.12S247.61,110.46,247.46,110.46Z" style="fill:#fff"></path><path d="M248.89,60a.25.25,0,1,1-.25-.25A.25.25,0,0,1,248.89,60Z" style="fill:#fff"></path><path d="M250,97.21a.25.25,0,1,1-.25-.25A.25.25,0,0,1,250,97.21Z" style="fill:#fff"></path><path d="M249.14,64.88a.25.25,0,1,1-.25-.25A.25.25,0,0,1,249.14,64.88Z" style="fill:#fff"></path><path d="M250,89.38a.25.25,0,1,1-.25-.25A.25.25,0,0,1,250,89.38Z" style="fill:#fff"></path><path d="M266.59,87.34a4.55,4.55,0,0,1-.83-1.67,14.36,14.36,0,0,1-.78-4.45,14.07,14.07,0,0,1,.65-4.48,5,5,0,0,1,.78-1.69,26.31,26.31,0,0,0-.91,6.16A25.76,25.76,0,0,0,266.59,87.34Z" style="fill:#455a64"></path><path d="M226.61,88.35c-.08,0,.36-.73.76-1.95a16.61,16.61,0,0,0,.74-4.94c0-1,0-1.93,0-2.79a9.56,9.56,0,0,0-.18-2.22,1.74,1.74,0,0,0-.83-1.11c-.3-.16-.51-.14-.51-.19s.21-.12.59,0a1.83,1.83,0,0,1,1.1,1.17,8.63,8.63,0,0,1,.31,2.32c0,.86.08,1.82,0,2.82a14.18,14.18,0,0,1-.91,5.06A4.74,4.74,0,0,1,226.61,88.35Z" style="fill:#455a64"></path><path d="M240,80.58c-.09,0,0-.4-.23-.92a1.76,1.76,0,0,0-3.27,0c-.23.52-.17.91-.25.92s-.27-.38-.1-1a2.05,2.05,0,0,1,.63-1,2.05,2.05,0,0,1,3.34,1.05C240.31,80.21,240.09,80.61,240,80.58Z" style="fill:#fff"></path><path d="M257.5,115.71a105.15,105.15,0,0,1-10.56.26,105.15,105.15,0,0,1-10.56-.26c0-.14,4.73-.26,10.56-.26S257.5,115.57,257.5,115.71Z" style="fill:#455a64"></path><path d="M257.5,113.15a105.15,105.15,0,0,1-10.56.26,105.15,105.15,0,0,1-10.56-.26c0-.14,4.73-.26,10.56-.26S257.5,113,257.5,113.15Z" style="fill:#455a64"></path><path d="M245.32,118.14s-30.38,1.28-35.18,13.06-2.66,55.33,13.93,58.86c10.46,2.23,27.93,1.65,39.38.91A16.1,16.1,0,0,0,278,178.91c3.51-13.62,7.78-36.45,1.46-49.48C272.63,122.07,261.13,118.39,245.32,118.14Z" style="fill:#00C0B5"></path><rect x="218.64" y="134.6" width="54.11" height="28.37" rx="13.91" style="fill:#263238"></rect><path d="M250.21,172.53a.25.25,0,1,1-.25-.25A.25.25,0,0,1,250.21,172.53Z" style="fill:#fff"></path><path d="M255.34,168.51a.25.25,0,1,1-.25-.25A.25.25,0,0,1,255.34,168.51Z" style="fill:#fff"></path><path d="M265.54,168a.25.25,0,0,1-.25.25.25.25,0,0,1,0-.5A.25.25,0,0,1,265.54,168Z" style="fill:#fff"></path><path d="M273,164a.25.25,0,1,1-.5,0,.25.25,0,0,1,.5,0Z" style="fill:#fff"></path><path d="M277.64,157.42a.25.25,0,1,1-.25-.25A.25.25,0,0,1,277.64,157.42Z" style="fill:#fff"></path><path d="M279.33,150.43a.25.25,0,1,1-.25-.25A.25.25,0,0,1,279.33,150.43Z" style="fill:#fff"></path><path d="M278.57,143.66a.25.25,0,1,1-.25-.25A.25.25,0,0,1,278.57,143.66Z" style="fill:#fff"></path><path d="M275.45,137a.25.25,0,1,1-.25-.25A.25.25,0,0,1,275.45,137Z" style="fill:#fff"></path><path d="M271,132.72a.25.25,0,1,1-.25-.25A.25.25,0,0,1,271,132.72Z" style="fill:#fff"></path><path d="M264.58,130a.25.25,0,0,1-.25.25.25.25,0,0,1,0-.5A.25.25,0,0,1,264.58,130Z" style="fill:#fff"></path><path d="M256.49,129.79a.25.25,0,0,1-.25.25.25.25,0,0,1,0-.5A.25.25,0,0,1,256.49,129.79Z" style="fill:#fff"></path><path d="M248.83,130a.25.25,0,1,1-.25-.25A.25.25,0,0,1,248.83,130Z" style="fill:#fff"></path><path d="M239.87,129.54a.25.25,0,1,1-.25-.25A.25.25,0,0,1,239.87,129.54Z" style="fill:#fff"></path><path d="M231.41,129.54a.25.25,0,0,1-.25.25.25.25,0,0,1,0-.5A.25.25,0,0,1,231.41,129.54Z" style="fill:#fff"></path><path d="M222.86,131.7a.25.25,0,0,1-.25.25.26.26,0,0,1-.25-.25.25.25,0,0,1,.25-.25A.25.25,0,0,1,222.86,131.7Z" style="fill:#fff"></path><path d="M215.35,137.2a.25.25,0,1,1-.25-.25A.25.25,0,0,1,215.35,137.2Z" style="fill:#fff"></path><path d="M212,145.84a.25.25,0,1,1-.25-.25A.25.25,0,0,1,212,145.84Z" style="fill:#fff"></path><path d="M212.73,154.61a.25.25,0,0,1-.5,0,.25.25,0,0,1,.5,0Z" style="fill:#fff"></path><path d="M216.82,161.65a.25.25,0,1,1-.25-.25A.25.25,0,0,1,216.82,161.65Z" style="fill:#fff"></path><path d="M224.05,167.76a.25.25,0,1,1-.25-.25A.25.25,0,0,1,224.05,167.76Z" style="fill:#fff"></path><path d="M233.94,168a.25.25,0,0,1-.25.25.25.25,0,0,1,0-.5A.25.25,0,0,1,233.94,168Z" style="fill:#fff"></path><path d="M243.43,168.26a.25.25,0,1,1-.25-.25A.25.25,0,0,1,243.43,168.26Z" style="fill:#fff"></path><path d="M250,181.5a.25.25,0,1,1-.25-.25A.25.25,0,0,1,250,181.5Z" style="fill:#fff"></path><path d="M245.92,144.6v9.33h-2.16V150.1h-4.24v3.83h-2.16V144.6h2.16v3.68h4.24V144.6Z" style="fill:#fff"></path><path d="M247.74,144.6a1.18,1.18,0,0,1,1.29-1.16,1.17,1.17,0,0,1,1.3,1.12,1.3,1.3,0,0,1-2.59,0Zm.25,2.16h2.09v7.17H248Z" style="fill:#fff"></path><path d="M251.7,152.83a1.28,1.28,0,0,1,2.56,0,1.28,1.28,0,0,1-2.56,0Zm0-8.23h2.48l-.41,6.09h-1.65Z" style="fill:#fff"></path><path d="M246.51,132a45.31,45.31,0,0,1-.26-6.8,45.2,45.2,0,0,1,.26-6.8,45.2,45.2,0,0,1,.26,6.8A45.31,45.31,0,0,1,246.51,132Z" style="fill:#fff"></path><path d="M246.81,190.52c-.14,0-.26-5.57-.26-12.45s.12-12.46.26-12.46.27,5.58.27,12.46S247,190.52,246.81,190.52Z" style="fill:#fff"></path><path d="M259.53,165.61a18.2,18.2,0,0,0,6.11-1.29,16.23,16.23,0,0,0,5.95-4.18,15.81,15.81,0,0,0,2.56-3.77,15.33,15.33,0,0,0,1.51-4.87,17.37,17.37,0,0,0-2.1-11.3A16.43,16.43,0,0,0,263,132.56c-2.31-.54-4.78-.31-7.29-.36H231.85a16.26,16.26,0,0,0-13.49,7.18,16.55,16.55,0,0,0-2.62,7,18.64,18.64,0,0,0,.5,7.2,16.25,16.25,0,0,0,8.32,10,16.51,16.51,0,0,0,5.82,1.68l1.45.07h4.23l17.17.08,4.68.05,1.21,0a2.18,2.18,0,0,1,.41,0l-.41,0-1.21,0-4.68.05-17.17.08h-4.23l-1.48-.07a16.77,16.77,0,0,1-14.58-12,19.09,19.09,0,0,1-.52-7.4,17,17,0,0,1,2.69-7.24,16.69,16.69,0,0,1,13.91-7.42h27.57l1.85.09c.61.1,1.22.17,1.81.3A16.78,16.78,0,0,1,273.93,140,17.7,17.7,0,0,1,276,151.56a15.59,15.59,0,0,1-1.57,5,15.91,15.91,0,0,1-2.65,3.81,16.14,16.14,0,0,1-6.08,4.18,16.67,16.67,0,0,1-4.55,1.07l-1.22,0Z" style="fill:#fff"></path><g style="opacity:0.30000000000000004"><path d="M211.49,174.25c9.4,7.65,20.65,15.14,33.09,15.39a49.26,49.26,0,0,0,34-12.92s-1.68,12.2-13.4,14c-7.48,1.17-20.15,1.13-29,.69-5-.24-8.74-.82-9.66-.92-3.09-.33-8.62-1.34-12-8.85-.52-1.13-1.12-2.06-1.47-2.87C211.13,174.36,211.49,174.25,211.49,174.25Z"></path></g><rect x="221.95" y="190.42" width="47.48" height="2.6" rx="1.28" style="fill:#263238"></rect><path d="M244.52,226.85a4.28,4.28,0,0,1-1.1-.15,21.89,21.89,0,0,1-2.93-.85,24.94,24.94,0,0,1-14.32-13.43,20.5,20.5,0,0,1-1-2.87,4.28,4.28,0,0,1-.23-1.09c.09,0,.49,1.51,1.59,3.8a26.54,26.54,0,0,0,14.12,13.25C243,226.46,244.54,226.76,244.52,226.85Z" style="fill:#455a64"></path><path d="M268.33,208.54s10.36,2.67,7.05,11.44l-18.09,15.08a13.71,13.71,0,0,1-6.91-9.9l17.46-15.66" style="fill:#263238"></path><path d="M248.64,226.88c0-.09,1.54-.4,3.9-1.35a26.47,26.47,0,0,0,14.12-13.24c1.1-2.29,1.5-3.83,1.59-3.8a4.37,4.37,0,0,1-.23,1.09,20.11,20.11,0,0,1-1,2.87,24.94,24.94,0,0,1-14.32,13.43,20.2,20.2,0,0,1-2.93.84A4.1,4.1,0,0,1,248.64,226.88Z" style="fill:#455a64"></path><path d="M247,227.11a91.56,91.56,0,0,1-.26-9.68,91.53,91.53,0,0,1,.26-9.69,91.53,91.53,0,0,1,.26,9.69A91.56,91.56,0,0,1,247,227.11Z" style="fill:#455a64"></path><path d="M219.72,299.65l-7.85,7.1s-.9,25.88,9,49.91,16.36,31.07,16.36,31.07l7.43-.48L239,300.69l-8.14-1.77Z" style="fill:#00C0B5"></path><g style="opacity:0.30000000000000004"><polygon points="227.65 299.19 239.88 385.04 244.7 385.61 239.01 300.69 230.87 298.92 227.65 299.19"></polygon></g><path d="M239.88,385c-.15,0-3-19.17-6.31-42.87s-5.93-42.93-5.78-42.95,3,19.17,6.3,42.88S240,385,239.88,385Z" style="fill:#fff"></path><path d="M233.85,321.25a.25.25,0,0,1-.23.27.26.26,0,0,1-.27-.24.25.25,0,0,1,.24-.26A.25.25,0,0,1,233.85,321.25Z" style="fill:#fff"></path><path d="M236.67,342.34a.26.26,0,0,1-.23.27.26.26,0,0,1-.27-.24.25.25,0,0,1,.5,0Z" style="fill:#fff"></path><path d="M239.59,366.58a.25.25,0,0,1-.23.27.26.26,0,0,1-.27-.23.26.26,0,0,1,.24-.27A.25.25,0,0,1,239.59,366.58Z" style="fill:#fff"></path><path d="M230.5,304a.26.26,0,0,1-.24.27.25.25,0,0,1,0-.5A.26.26,0,0,1,230.5,304Z" style="fill:#fff"></path><path d="M217.78,220h-7.24s-9,45.23,7.24,65.74h12.66s5.43-10.26,5.43-15.68V235Z" style="fill:#00C0B5"></path><g style="opacity:0.30000000000000004"><path d="M212.82,277.05l13.84-5.46V227.36l9.21,7.67-.1,34.91a15.38,15.38,0,0,1-.37,3.39,43,43,0,0,1-5,12.36H217.78A35.89,35.89,0,0,1,212.82,277.05Z"></path></g><path d="M226.66,227.36a2.31,2.31,0,0,1,.06.6c0,.45,0,1,.05,1.72,0,1.56,0,3.71.08,6.33,0,5.41.05,12.77.08,20.9,0,5.37,0,10.39,0,14.68v.16l-.14.05-10.07,3.87-2.84,1.05a6.18,6.18,0,0,1-1,.33,6.73,6.73,0,0,1,1-.46l2.79-1.17,10-4-.14.21c0-4.29,0-9.31,0-14.68,0-8.13.06-15.49.08-20.9,0-2.62.06-4.77.08-6.33,0-.7,0-1.27.05-1.72A3.92,3.92,0,0,1,226.66,227.36Z" style="fill:#fff"></path><path d="M229,261.17a.25.25,0,1,1-.25-.25A.25.25,0,0,1,229,261.17Z" style="fill:#fff"></path><path d="M221.22,277.67a.25.25,0,1,1-.25-.25A.25.25,0,0,1,221.22,277.67Z" style="fill:#fff"></path><path d="M229,247.27a.25.25,0,0,1-.5,0,.25.25,0,0,1,.5,0Z" style="fill:#fff"></path><path d="M229,233.36a.25.25,0,1,1-.25-.25A.25.25,0,0,1,229,233.36Z" style="fill:#fff"></path><rect x="214.68" y="285.34" width="19.33" height="13.96" rx="6.84" style="fill:#263238"></rect><path d="M222.73,299.24s-.22,0-.55-.14a3,3,0,0,1-1.11-1.09,10.48,10.48,0,0,1-1-4.89,14.68,14.68,0,0,1,.76-4.92,5.35,5.35,0,0,1,.87-1.87,25.25,25.25,0,0,0-1.11,6.78,11.7,11.7,0,0,0,.84,4.72A3.61,3.61,0,0,0,222.73,299.24Z" style="fill:#455a64"></path><path d="M249,401c0-2.1,0-8-.61-10a8.1,8.1,0,0,0-3.59-5,10.35,10.35,0,0,0-9.35.47,8.13,8.13,0,0,0-3.06,6.69l-.43,7.78" style="fill:#263238"></path><path d="M248.68,398.42l-18.17-.17s-13.43,2.76-13.17,3.84,31.79.42,31.79.42Z" style="fill:#00C0B5"></path><path d="M232.46,392.87a8.19,8.19,0,0,0,2.29.87,26.41,26.41,0,0,0,11.73.56,8,8,0,0,0,2.36-.65,57.3,57.3,0,0,1-8.23.49A57.44,57.44,0,0,1,232.46,392.87Z" style="fill:#455a64"></path><path d="M273.23,298l8.29,6.57s2.57,25.73-5.72,50.31-14.29,32-14.29,32h-7.43v-86.6l8-2.29Z" style="fill:#00C0B5"></path><g style="opacity:0.30000000000000004"><polygon points="265.49 298.38 258.85 384.84 254.08 385.73 254.25 300.61 262.26 298.32 265.49 298.38"></polygon></g><path d="M258.92,384.84c-.14,0,1.2-19.36,3-43.23s3.37-43.2,3.51-43.19-1.19,19.36-3,43.23S259.07,384.85,258.92,384.84Z" style="fill:#fff"></path><path d="M260.63,320.89a.47.47,0,1,0,.94,0,.47.47,0,0,0-.94,0Z" style="fill:#fff"></path><path d="M258.76,342.41a.47.47,0,1,0,.47-.46A.47.47,0,0,0,258.76,342.41Z" style="fill:#fff"></path><path d="M257.82,366.74a.47.47,0,1,0,.47-.47A.47.47,0,0,0,257.82,366.74Z" style="fill:#fff"></path><path d="M262.5,303.11a.47.47,0,1,0,.47-.46A.47.47,0,0,0,262.5,303.11Z" style="fill:#fff"></path><path d="M274.91,219.37h7.22s9,45.07-7.22,65.5H262.3s-5.41-10.22-5.41-15.62V234.39Z" style="fill:#00C0B5"></path><g style="opacity:0.30000000000000004"><path d="M280.32,276.23l-14.08-5.46V226.54l-9.35,7.67L257,269.1a15.91,15.91,0,0,0,.39,3.44,42.78,42.78,0,0,0,5,12.33h12.88A35.71,35.71,0,0,0,280.32,276.23Z"></path></g><path d="M266.24,226.86a2.31,2.31,0,0,1,.06.6c0,.45,0,1,.05,1.72,0,1.57,0,3.71.08,6.34,0,5.41,0,12.78.07,20.91,0,5.38,0,10.41,0,14.71l-.14-.21,10,4,2.79,1.17a6.23,6.23,0,0,1,1,.45,5.19,5.19,0,0,1-1-.32l-2.84-1.06-10.07-3.86-.14-.06v-.15c0-4.3,0-9.33,0-14.71,0-8.13.06-15.5.08-20.91,0-2.63.06-4.77.08-6.34,0-.7,0-1.27.05-1.72A3.92,3.92,0,0,1,266.24,226.86Z" style="fill:#fff"></path><path d="M263.44,261a.47.47,0,1,0,.46-.47A.47.47,0,0,0,263.44,261Z" style="fill:#fff"></path><path d="M270.92,276.92a.47.47,0,1,0,.47-.47A.47.47,0,0,0,270.92,276.92Z" style="fill:#fff"></path><path d="M263.44,247a.47.47,0,1,0,.93,0,.47.47,0,0,0-.93,0Z" style="fill:#fff"></path><path d="M263.44,232.94a.47.47,0,1,0,.46-.47A.47.47,0,0,0,263.44,232.94Z" style="fill:#fff"></path><rect x="258.76" y="283.93" width="19.65" height="14.04" rx="6.88" transform="translate(537.17 581.9) rotate(180)" style="fill:#263238"></rect><path d="M269.86,298.32a3.67,3.67,0,0,0,1.34-1.41,11.86,11.86,0,0,0,.84-4.71,25.5,25.5,0,0,0-1.12-6.79,5.46,5.46,0,0,1,.88,1.87,15.21,15.21,0,0,1,.76,4.92,10.44,10.44,0,0,1-1,4.89,2.9,2.9,0,0,1-1.11,1.09C270.08,298.34,269.87,298.35,269.86,298.32Z" style="fill:#455a64"></path><path d="M248.06,400.84c0-2.1,0-7.94.61-10a8.07,8.07,0,0,1,3.6-5,10.35,10.35,0,0,1,9.35.47,8.08,8.08,0,0,1,3.05,6.68l.44,7.78" style="fill:#263238"></path><path d="M248.34,398.27l18.18-.17s13.43,2.76,13.16,3.84-31.79.42-31.79.42Z" style="fill:#00C0B5"></path><path d="M266.45,392.56a8.37,8.37,0,0,1-2.29.87,26.41,26.41,0,0,1-11.73.56,8.35,8.35,0,0,1-2.36-.65c0-.18,3.67.72,8.23.48A56.65,56.65,0,0,0,266.45,392.56Z" style="fill:#455a64"></path><path d="M213.47,126.87s-11.18-.83-12.58,10.37,8.71,11.16,8.71,11.16Z" style="fill:#263238"></path><polygon points="168.46 167.97 181.15 176.19 204.25 152.41 206.16 124.67 193.47 130.65 193.47 130.65 168.46 167.97" style="fill:#00C0B5"></polygon><g style="opacity:0.30000000000000004"><polygon points="204.25 152.41 181.15 176.19 175.88 172.78 205.07 140.56 204.25 152.41"></polygon></g><path d="M204.86,140.66c.11.1-5.52,6.48-12.56,14.25s-12.84,14-12.94,13.9,5.51-6.48,12.56-14.25S204.75,140.56,204.86,140.66Z" style="fill:#fff"></path><path d="M185.36,166.77a.26.26,0,0,1-.25.25.25.25,0,0,1-.25-.25.25.25,0,0,1,.25-.25A.25.25,0,0,1,185.36,166.77Z" style="fill:#fff"></path><path d="M192.11,159.13a.25.25,0,1,1-.25-.25A.25.25,0,0,1,192.11,159.13Z" style="fill:#fff"></path><path d="M198.86,151.49a.25.25,0,1,1-.25-.25A.25.25,0,0,1,198.86,151.49Z" style="fill:#fff"></path><circle cx="172.85" cy="177.16" r="10.39" style="fill:#263238"></circle><polygon points="182.85 178.07 210.21 212.06 205.36 218.4 163.81 190.67 163.81 190.67 162.11 176.61 182.85 178.07" style="fill:#00C0B5"></polygon><g style="opacity:0.30000000000000004"><polygon points="200.75 215.33 201.58 207.34 176.38 177.61 182.85 178.07 210.21 212.06 205.36 218.4 200.75 215.33"></polygon></g><path d="M200.75,215.33a2,2,0,0,1,0-.56c0-.43.07-1,.12-1.6.12-1.47.3-3.45.51-5.85l.05.15-10.05-11.76c-4.2-5-8-9.45-10.69-12.73l-3.19-3.89-.85-1.08a1.9,1.9,0,0,1-.27-.4s.14.11.35.33.56.61.92,1l3.32,3.78c2.79,3.22,6.61,7.68,10.8,12.63,3.82,4.54,7.29,8.68,10,11.84l.05.07v.08c-.28,2.4-.52,4.37-.69,5.83-.08.64-.16,1.16-.21,1.59A2.17,2.17,0,0,1,200.75,215.33Z" style="fill:#fff"></path><path d="M194.41,196.22a.25.25,0,1,1-.25-.25A.25.25,0,0,1,194.41,196.22Z" style="fill:#fff"></path><path d="M201,203.56a.25.25,0,1,1-.25-.25A.25.25,0,0,1,201,203.56Z" style="fill:#fff"></path><path d="M188.73,189.28a.25.25,0,1,1-.25-.25A.25.25,0,0,1,188.73,189.28Z" style="fill:#fff"></path><path d="M183,183a.25.25,0,1,1-.25-.25A.25.25,0,0,1,183,183Z" style="fill:#fff"></path><polygon points="328.79 115.18 332.74 129.78 303.04 144.52 290.83 141.51 285.61 127.6 285.61 127.6 328.79 115.18" style="fill:#00C0B5"></polygon><g style="opacity:0.30000000000000004"><polygon points="303.04 144.52 332.74 129.78 331.1 123.72 291.51 141.68 303.04 144.52"></polygon></g><path d="M291.67,141.51c-.06-.13,7.64-3.75,17.19-8.09s17.34-7.73,17.4-7.6-7.63,3.75-17.19,8.08S291.73,141.64,291.67,141.51Z" style="fill:#fff"></path><path d="M322.49,130.91a.25.25,0,0,0,.15-.48.26.26,0,0,0-.32.16A.26.26,0,0,0,322.49,130.91Z" style="fill:#fff"></path><path d="M313.15,135a.25.25,0,1,0-.16-.31A.25.25,0,0,0,313.15,135Z" style="fill:#fff"></path><path d="M303.81,139.1a.25.25,0,0,0,.32-.16.26.26,0,0,0-.16-.32.25.25,0,0,0-.32.17A.25.25,0,0,0,303.81,139.1Z" style="fill:#fff"></path><path d="M278.07,128.16s11.18-.83,12.58,10.36-8.71,11.16-8.71,11.16Z" style="fill:#263238"></path><circle cx="336.2" cy="122.17" r="10.39" transform="translate(-18.1 171.41) rotate(-27.88)" style="fill:#263238"></circle><polygon points="347.55 111.26 346.81 67.63 339.02 65.86 324.85 113.77 324.85 113.77 342.94 115.53 347.55 111.26" style="fill:#00C0B5"></polygon><g style="opacity:0.30000000000000004"><polygon points="337.45 71.18 343.19 76.79 342.87 115.75 347.55 111.26 346.81 67.63 339.02 65.86 337.45 71.18"></polygon></g><path d="M337.45,71.18s.16.11.44.35l1.18,1.08,4.26,4,.06,0v.09c0,4.14,0,9.54-.06,15.47-.06,6.49-.14,12.36-.22,16.61l-.12,5c0,.54-.05,1-.06,1.37a1.47,1.47,0,0,1-.06.47,1.74,1.74,0,0,1-.05-.47c0-.38,0-.83,0-1.37,0-1.28,0-3,0-5,0-4.25,0-10.13.06-16.62.08-5.92.15-11.33.2-15.46l.06.14-4.14-4.16-1.11-1.16C337.56,71.34,337.43,71.19,337.45,71.18Z" style="fill:#fff"></path><path d="M344.81,89.92a.25.25,0,0,0-.36,0,.25.25,0,0,0,0,.35.24.24,0,0,0,.35,0A.25.25,0,0,0,344.81,89.92Z" style="fill:#fff"></path><path d="M344.68,80a.24.24,0,0,1,.34.1.25.25,0,0,1-.44.24A.26.26,0,0,1,344.68,80Z" style="fill:#fff"></path><path d="M344.89,98.89a.25.25,0,0,0-.36,0,.25.25,0,0,0,0,.35.26.26,0,0,0,.36,0A.25.25,0,0,0,344.89,98.89Z" style="fill:#fff"></path><path d="M209.8,207.59l3.16.58,2.7,2.85-1,2.12,1.8,5.43s.13,1.71-1.09,2l-1.22.29s.26,1.45-1.62,2.08l-2.67.89s-.95,1.41-1.88.62-1.58-.46-1.58-.46-1.38.79-2.07.36-3.9-7.42-3.9-7.42L199,215.81l7.95-8.89,1.33,1.06Z" style="fill:#263238"></path><rect x="195.77" y="210.02" width="14.34" height="2.73" rx="1.34" transform="translate(-90.04 205.42) rotate(-45)" style="fill:#263238"></rect><path d="M208.16,208.15a35.63,35.63,0,0,1-4.06,4.37,34.22,34.22,0,0,1-4.43,4,34.81,34.81,0,0,1,4.06-4.37A33.62,33.62,0,0,1,208.16,208.15Z" style="fill:#455a64"></path><path d="M348.35,67.35l1.25-7.88,2.39-7.7s.6-2-.66-2-4.24,6-4.24,6,2.24-7,2-8.45-.94-1.43-1.83-.57-3,6-3,6,.76-6.9,0-7.6-1.49-.67-1.86.09-1.17,7-1.27,7.3-1-5.85-1.95-6-1.8-.33-1.67,1.74-.29,8.16-.29,8.16-1.75-4.63-3-5c-1.48-.46-1.66.27-.88,2.85.93,3.09.74,3.81.74,3.81s1.3,4.77,1.82,8.37Z" style="fill:#263238"></path><path d="M337.16,58.64s.41-.06,1-.07a4.61,4.61,0,0,1,2.37.59,4.72,4.72,0,0,1,1.73,1.72c.32.55.43.94.48.93a2.12,2.12,0,0,0-.29-1,4.33,4.33,0,0,0-4.31-2.43A2.14,2.14,0,0,0,337.16,58.64Z" style="fill:#455a64"></path><path d="M344,61.7c.06.06.65-.53,1.49-1.1a15.54,15.54,0,0,0,1.57-1,3.67,3.67,0,0,0-1.74.75A3.49,3.49,0,0,0,344,61.7Z" style="fill:#455a64"></path><rect x="334.84" y="65.98" width="14.34" height="2.73" rx="1.34" transform="translate(684.01 134.7) rotate(180)" style="fill:#263238"></rect><path d="M336,66a32.58,32.58,0,0,1,6-.22,33.46,33.46,0,0,1,6,.3,35.05,35.05,0,0,1-6,.22A35.87,35.87,0,0,1,336,66Z" style="fill:#455a64"></path></g><g id="freepik--Floor--inject-5"><path d="M464,479.69c0,.14-95.83.26-214,.26s-214-.12-214-.26,95.81-.26,214.05-.26S464,479.54,464,479.69Z" style="fill:#263238"></path></g></svg>
