<?xml version="1.0" encoding="UTF-8"?>
<!DOCTYPE svg PUBLIC "-//W3C//DTD SVG 1.1//EN" "http://www.w3.org/Graphics/SVG/1.1/DTD/svg11.dtd">
<svg xmlns="http://www.w3.org/2000/svg" xml:space="preserve" width="444.853mm" height="87.4937mm" version="1.1" style="shape-rendering:geometricPrecision; text-rendering:geometricPrecision; image-rendering:optimizeQuality; fill-rule:evenodd; clip-rule:evenodd"
viewBox="0 0 44471 8747"
 xmlns:xlink="http://www.w3.org/1999/xlink">
 <defs>
  <style type="text/css">
   <![CDATA[
    .fil0 {fill:black;fill-rule:nonzero}
   ]]>
  </style>
 </defs>
 <g id="Ebene_x0020_1">
  <metadata id="CorelCorpID_0Corel-Layer"/>
  <g id="_755017952">
   <path class="fil0" d="M9525 2397l0 -2396 1143 0c132,0 245,48 341,145 95,96 143,211 143,344l0 185c0,135 -47,250 -142,346 -95,95 -209,143 -342,143l-206 0 659 1135c21,33 31,67 31,100 0,44 -16,81 -50,112 -33,32 -71,48 -114,48 -64,0 -113,-28 -146,-86l-759 -1309 -231 0 0 1233c0,45 -17,83 -49,114 -33,32 -72,48 -117,48 -44,0 -82,-16 -114,-48 -31,-31 -47,-69 -47,-114zm327 -1556l816 0c45,0 83,-16 114,-48 31,-31 47,-69 47,-114l0 -189c0,-45 -16,-83 -47,-114 -31,-32 -69,-48 -114,-48l-816 0 0 513z"/>
   <path id="1" class="fil0" d="M13098 238l356 726c49,98 74,205 74,321 0,113 -25,219 -74,319l-356 718c-76,158 -205,237 -385,237 -86,0 -163,-23 -232,-68 -68,-45 -120,-101 -155,-169l-358 -718c-47,-93 -71,-200 -71,-319 0,-119 24,-226 71,-321l358 -726c81,-158 210,-237 387,-237 179,0 308,79 385,237zm-493 161l-335 682c-31,68 -46,135 -46,200 0,71 15,138 46,202l345 689c18,43 50,64 98,64 41,0 72,-21 94,-64l346 -689c33,-68 48,-135 48,-202 0,-71 -15,-138 -48,-200l-339 -682c-21,-50 -55,-75 -101,-75 -46,0 -82,25 -108,75z"/>
   <path id="2" class="fil0" d="M15908 1767l0 142c0,178 -63,331 -189,459 -126,127 -279,191 -457,191l-989 0 0 -2558 989 0c178,0 331,64 457,191 126,127 189,280 189,460l0 137c0,191 -73,354 -221,489 148,137 221,300 221,489zm-331 -982l0 -133c0,-90 -31,-167 -94,-231 -64,-64 -139,-97 -227,-97l-656 0 0 785 656 0c86,0 162,-32 226,-96 63,-63 95,-139 95,-228zm0 1124l0 -134c0,-90 -31,-167 -95,-232 -63,-63 -139,-95 -228,-95l-654 0 0 784 654 0c88,0 163,-32 228,-96 63,-63 95,-139 95,-227z"/>
   <path id="3" class="fil0" d="M17858 238l356 726c50,98 75,205 75,321 0,113 -25,219 -75,319l-356 718c-76,158 -205,237 -385,237 -86,0 -163,-23 -232,-68 -68,-45 -120,-101 -155,-169l-358 -718c-47,-93 -71,-200 -71,-319 0,-119 24,-226 71,-321l358 -726c81,-158 210,-237 387,-237 179,0 308,79 385,237zm-493 161l-335 682c-31,68 -46,135 -46,200 0,71 15,138 46,202l345 689c18,43 51,64 98,64 41,0 72,-21 94,-64l347 -689c32,-68 47,-135 47,-202 0,-71 -15,-138 -47,-200l-339 -682c-22,-50 -56,-75 -102,-75 -46,0 -82,25 -108,75z"/>
   <path id="4" class="fil0" d="M19033 439l0 -438 1636 0 0 438c0,45 -16,83 -48,115 -32,31 -71,46 -114,46 -45,0 -83,-15 -116,-47 -33,-32 -49,-70 -49,-112l0 -117 -327 0 0 2073c0,45 -16,83 -48,114 -33,32 -71,48 -114,48 -46,0 -85,-16 -118,-48 -32,-31 -48,-69 -48,-114l0 -2073 -331 0 0 114c0,45 -15,84 -47,115 -31,32 -69,47 -114,47 -45,0 -83,-15 -114,-47 -32,-31 -48,-70 -48,-114z"/>
   <path id="5" class="fil0" d="M23797 2397l0 -2396 1466 0c42,0 80,16 113,48 32,32 49,71 49,114 0,45 -16,83 -48,116 -32,33 -70,49 -114,49l-1142 0 0 509 819 0c45,0 83,16 114,47 32,32 48,70 48,114 0,45 -16,83 -48,115 -31,31 -69,47 -114,47l-819 0 0 1237c0,45 -16,83 -48,114 -31,32 -69,48 -114,48 -45,0 -83,-16 -114,-48 -32,-31 -48,-69 -48,-114z"/>
   <path id="6" class="fil0" d="M26185 2397l0 -2396 1143 0c132,0 246,48 342,145 95,96 143,211 143,344l0 185c0,135 -47,250 -143,346 -94,95 -209,143 -342,143l-205 0 659 1135c20,33 31,67 31,100 0,44 -17,81 -50,112 -34,32 -72,48 -114,48 -65,0 -113,-28 -147,-86l-758 -1309 -232 0 0 1233c0,45 -16,83 -49,114 -33,32 -71,48 -116,48 -45,0 -83,-16 -114,-48 -32,-31 -48,-69 -48,-114zm327 -1556l817 0c44,0 83,-16 114,-48 31,-31 47,-69 47,-114l0 -189c0,-45 -16,-83 -47,-114 -31,-32 -70,-48 -114,-48l-817 0 0 513z"/>
   <path id="7" class="fil0" d="M28567 2334l657 -2211c25,-81 78,-122 159,-122 79,0 128,35 149,103l649 2245c5,17 8,32 8,48 0,45 -15,83 -46,114 -31,32 -66,48 -106,48 -84,0 -138,-40 -161,-118l-128 -438 -744 0 -141 470c-3,20 -20,39 -48,58 -28,19 -60,28 -93,28 -47,0 -87,-16 -118,-48 -31,-32 -46,-72 -46,-118 0,-19 3,-39 9,-59zm814 -1584l-278 926 549 0 -271 -926z"/>
   <path id="8" class="fil0" d="M31592 1006l0 -83 -335 -476 0 1950c0,45 -16,83 -47,114 -32,32 -70,48 -115,48 -44,0 -82,-16 -114,-48 -31,-32 -47,-70 -47,-114l0 -2396 412 0 403 580 411 -580 409 0 0 2396c0,45 -16,83 -49,114 -33,32 -72,48 -116,48 -44,0 -82,-16 -114,-48 -32,-32 -48,-70 -48,-114l0 -1942 -327 461 0 90c0,44 -16,82 -48,114 -32,32 -70,48 -114,48 -44,0 -82,-16 -114,-48 -31,-32 -47,-70 -47,-114z"/>
   <path id="9" class="fil0" d="M34788 328l-1143 0 0 789 492 0c44,0 82,15 114,47 32,33 48,71 48,114 0,46 -16,85 -47,118 -32,32 -70,48 -115,48l-492 0 0 792 1147 0c43,0 81,15 113,47 32,31 48,70 48,114 0,45 -16,83 -49,114 -33,32 -72,48 -116,48l-1466 0 0 -2558 1466 0c44,0 83,17 116,50 33,32 49,71 49,116 0,43 -16,81 -49,113 -33,33 -72,48 -116,48z"/>
   <path id="10" class="fil0" d="M36675 1002l0 1076 95 158 134 0 98 -162 0 -1907c0,-45 17,-84 49,-116 33,-33 72,-50 117,-50 43,0 81,16 113,48 33,32 48,71 48,114l0 1963c0,24 -13,58 -40,102l-150 248c-31,55 -78,83 -141,83l-304 0c-96,0 -157,-44 -184,-131 -30,87 -89,131 -177,131l-285 0c-82,0 -141,-30 -177,-91l-138 -232c-26,-43 -39,-79 -39,-110l0 -1959c0,-45 16,-84 49,-116 32,-33 72,-50 116,-50 42,0 79,17 111,50 31,32 47,71 47,116l0 1915 95 154 138 0 102 -162 0 -1072c0,-44 16,-82 47,-114 32,-32 70,-47 115,-47 44,0 82,15 114,47 31,32 47,70 47,114z"/>
   <path id="11" class="fil0" d="M39279 238l355 726c50,98 75,205 75,321 0,113 -25,219 -75,319l-355 718c-76,158 -205,237 -385,237 -86,0 -163,-23 -232,-68 -68,-45 -120,-101 -155,-169l-358 -718c-47,-93 -71,-200 -71,-319 0,-119 24,-226 71,-321l358 -726c81,-158 210,-237 387,-237 179,0 308,79 385,237zm-493 161l-335 682c-31,68 -46,135 -46,200 0,71 15,138 46,202l345 689c18,43 50,64 98,64 41,0 72,-21 94,-64l346 -689c33,-68 48,-135 48,-202 0,-71 -15,-138 -48,-200l-339 -682c-21,-50 -55,-75 -101,-75 -46,0 -82,25 -108,75z"/>
   <path id="12" class="fil0" d="M40466 2397l0 -2396 1143 0c132,0 245,48 341,145 95,96 143,211 143,344l0 185c0,135 -47,250 -142,346 -95,95 -209,143 -342,143l-206 0 660 1135c20,33 30,67 30,100 0,44 -16,81 -50,112 -33,32 -71,48 -114,48 -64,0 -113,-28 -146,-86l-759 -1309 -231 0 0 1233c0,45 -16,83 -49,114 -33,32 -72,48 -116,48 -45,0 -83,-16 -115,-48 -31,-31 -47,-69 -47,-114zm327 -1556l816 0c45,0 83,-16 115,-48 30,-31 46,-69 46,-114l0 -189c0,-45 -16,-83 -46,-114 -32,-32 -70,-48 -115,-48l-816 0 0 513z"/>
   <path id="13" class="fil0" d="M42834 2397l0 -2230c0,-46 16,-86 47,-118 32,-32 70,-48 115,-48 44,0 83,16 114,48 32,31 47,69 47,114l0 764 1035 -884c37,-29 77,-43 121,-42 44,0 81,17 111,50 30,32 46,70 46,113 1,44 -16,80 -50,110l-1172 998 1174 1015c32,27 48,62 48,104 0,42 -16,81 -48,116 -31,35 -70,52 -116,52 -43,0 -83,-15 -118,-45l-1031 -890 0 773c0,45 -15,83 -47,114 -31,32 -70,48 -114,48 -44,0 -82,-16 -114,-48 -32,-31 -48,-69 -48,-114z"/>
   <path id="14" class="fil0" d="M11797 3622l1076 0c90,0 166,32 229,95 63,63 95,139 95,229 0,95 -34,174 -103,237 -68,63 -142,94 -221,94l-1027 0c-100,-1 -189,47 -262,141l-910 1170c-76,92 -114,221 -114,386l0 1793c0,93 31,171 95,236 63,64 139,96 229,96l1318 0c87,0 163,-32 228,-96 64,-65 96,-141 96,-228l0 -702 -671 0c-92,0 -170,-32 -232,-95 -62,-63 -92,-140 -92,-229 0,-90 30,-166 92,-229 62,-63 140,-95 232,-95l1318 0 0 1350c0,267 -94,496 -285,686 -190,191 -419,285 -686,285l-1318 0c-270,0 -500,-94 -693,-285 -190,-190 -286,-419 -286,-686l0 -1793c0,-321 85,-593 257,-814l957 -1214c69,-92 166,-171 291,-236 125,-64 254,-96 387,-96z"/>
   <path id="15" class="fil0" d="M16091 7775l0 -3821c0,-90 32,-167 96,-233 65,-66 141,-99 228,-99 87,0 163,32 227,96 65,65 96,141 96,228l0 3829c0,85 33,158 98,221 64,64 139,95 227,95l1332 0c91,0 167,-30 231,-92 63,-62 94,-137 94,-224l0 -3821c0,-92 32,-171 95,-236 63,-64 140,-96 229,-96 89,0 166,32 229,96 63,65 95,144 95,236l0 3813c0,268 -96,498 -288,690 -193,193 -420,289 -686,289l-1329 0c-269,0 -498,-94 -688,-285 -191,-190 -286,-419 -286,-686z"/>
   <path id="16" class="fil0" d="M22617 3622l2621 0c85,0 160,32 225,96 66,65 99,141 99,228 0,89 -33,167 -97,233 -65,66 -141,98 -228,98l-986 0 0 3822 986 0c90,0 167,32 230,95 63,63 95,139 95,229 0,89 -32,166 -96,229 -64,63 -141,94 -228,94l-2621 0c-90,0 -166,-31 -229,-94 -63,-63 -95,-140 -95,-229 0,-90 32,-166 94,-229 63,-63 139,-95 229,-95l988 0 0 -3822 -988 0c-90,0 -166,-31 -229,-96 -62,-64 -94,-140 -94,-227 0,-92 32,-171 95,-236 63,-64 139,-96 229,-96z"/>
   <path id="17" class="fil0" d="M28789 3622l1284 0c167,3 331,57 490,162 158,105 275,233 349,382l639 1296c121,234 182,478 182,733 0,235 -65,479 -192,728l-645 1280c-82,164 -200,296 -354,395 -154,98 -327,148 -517,148l-1237 0c-90,0 -166,-31 -229,-96 -64,-64 -95,-140 -95,-227 0,-90 31,-167 95,-233 63,-66 139,-99 229,-99l339 0 0 -3814 -335 0c-91,0 -169,-32 -232,-98 -65,-66 -96,-144 -96,-233 0,-87 31,-163 95,-228 63,-64 139,-96 230,-96zm986 655l0 3814 226 7c143,0 251,-70 324,-212l646 -1270c80,-166 118,-307 114,-420 0,-142 -31,-276 -96,-403l-660 -1321c-69,-130 -182,-196 -341,-195l-213 0z"/>
   <path id="18" class="fil0" d="M37603 4277l-2289 0 0 1580 987 0c86,0 163,31 227,96 65,64 96,141 96,227 0,92 -31,171 -94,236 -64,64 -140,96 -229,96l-987 0 0 1587 2297 0c87,0 163,32 228,95 64,63 96,139 96,229 0,89 -33,166 -99,229 -66,63 -143,94 -233,94l-2937 0 0 -5124 2937 0c90,0 167,33 233,99 66,66 99,143 99,233 0,87 -33,163 -99,227 -66,65 -143,96 -233,96z"/>
   <path id="19" class="fil0" d="M41576 3622l1690 0c207,0 403,87 587,261 184,173 276,384 276,631 0,92 -33,171 -98,236 -66,64 -139,96 -219,96 -112,0 -188,-25 -229,-75 -41,-50 -80,-143 -118,-280 -37,-137 -120,-206 -249,-206l-1608 0c-78,0 -116,25 -116,74 0,30 17,66 50,108l2414 3073c115,148 173,309 173,477 0,194 -69,364 -210,510 -141,146 -298,219 -470,219l-1750 0c-232,0 -435,-88 -606,-264 -171,-176 -256,-370 -256,-580 0,-243 113,-364 339,-364 87,0 162,32 224,95 62,63 92,137 92,223 0,69 24,127 71,173 49,46 108,70 180,70l1619 0c70,0 104,-28 104,-83 1,-26 -14,-59 -47,-100l-2411 -3071c-115,-146 -171,-307 -171,-478 0,-201 72,-375 217,-522 143,-149 318,-223 522,-223z"/>
   <g>
    <path id="path22" class="fil0" d="M1806 3726c0,-684 556,-1240 1240,-1240 683,0 1239,556 1239,1240 0,249 -201,451 -449,451 -249,0 -450,-202 -450,-451 0,-187 -153,-339 -340,-339 -187,0 -340,152 -340,339 0,249 -201,451 -450,451 -248,0 -450,-202 -450,-451l0 0zm5134 2084c0,249 -201,450 -450,450l-4173 0c-248,0 -450,-201 -450,-450 0,-249 202,-451 450,-451l4173 0c249,0 450,202 450,451l0 0zm-1950 -1831c-139,-207 -85,-486 122,-625l1043 -705c204,-142 486,-84 625,120 139,206 84,486 -122,625l-1043 705c-77,52 -165,78 -251,78 -145,0 -287,-70 -374,-198l0 0zm2857 2770c0,85 -34,167 -94,227l-775 775c-61,61 -142,94 -227,94l-4755 0c-85,0 -167,-33 -227,-94l-775 -775c-61,-60 -94,-142 -94,-227l0 -4751c0,-86 34,-167 94,-227l775 -776c60,-60 142,-94 227,-94l4755 0c85,0 166,34 227,94l775 776c60,60 94,141 94,227l0 4751zm660 -5497l-1012 -1012c-154,-154 -362,-240 -579,-240l-5086 0c-217,0 -425,86 -579,240l-1011 1012c-154,154 -240,361 -240,578l0 5086c0,217 86,425 240,579l1012 1012c153,153 362,240 578,240l5086 0c217,0 425,-87 579,-240l1012 -1012c153,-154 240,-362 240,-579l0 -5085c0,-218 -87,-426 -240,-579l0 0zm0 0l0 0 0 0z"/>
   </g>
  </g>
 </g>
</svg>
